<?xml version="1.0" encoding="utf-8"?>
<!-- Generator: Adobe Illustrator 25.4.0, SVG Export Plug-In . SVG Version: 6.00 Build 0)  -->
<svg version="1.1" id="Layer_1" xmlns="http://www.w3.org/2000/svg" xmlns:xlink="http://www.w3.org/1999/xlink" x="0px" y="0px"
	 viewBox="0 0 3185.43 1693.5" style="enable-background:new 0 0 3185.43 1693.5;" xml:space="preserve">
<style type="text/css">
	.st0{fill:#FFFFFF;}
	.st1{fill-rule:evenodd;clip-rule:evenodd;fill:#1F78C1;}
	.st2{fill:none;}
</style>
<g>
	<g>
		<polygon class="st0" points="1509.43,888.34 1631.43,888.34 1631.43,1066.34 1745.43,1066.34 1745.43,621.34 1631.43,621.34 
			1631.43,789.34 1509.43,789.34 1509.43,621.34 1395.43,621.34 1395.43,1066.34 1509.43,1066.34 		"/>
		<rect x="1828.43" y="620.34" class="st0" width="115" height="446"/>
		<path class="st0" d="M2452.57,1066.34l27.26-89h131.09l26.88,89h121.65l-138.38-446h-128.53l-141.24,446H2452.57z M2545.83,745.34
			l39.33,139h-79.09L2545.83,745.34z"/>
		<path class="st0" d="M2905.21,977.34h131.08l26.89,89h121.64l-138.37-446h-128.54l-141.23,446h101.26L2905.21,977.34z
			 M2971.2,745.34l39.33,139h-79.08L2971.2,745.34z"/>
		<path class="st0" d="M2387.24,760.17c0-31.79-8.39-58.67-25.15-80.64c-16.78-21.98-35.87-37.26-57.28-45.83
			s-51.68-12.86-90.8-12.86h-178.04v446h117v-161h64.97c31.68,0,55.2-2,70.55-6c15.35-4.01,31.19-12.13,47.53-24.35
			c16.34-12.24,28.97-28.97,37.86-50.2C2382.78,804.06,2387.24,782.36,2387.24,760.17z M2258.03,799.36
			c-9.05,10.31-25.23,15.48-48.52,15.48h-59.54v-102h59.22c21.39,0,37.14,4.61,47.26,13.82c10.11,9.22,15.17,21.61,15.17,37.18
			C2271.62,777.2,2267.08,789.03,2258.03,799.36z"/>
		<polygon class="st0" points="3019.43,1148.34 3019.43,1168.34 3091.43,1168.34 3091.43,1388.34 3112.43,1388.34 3112.43,1168.34 
			3185.43,1168.34 3185.43,1148.34 		"/>
		<polygon class="st0" points="2954.82,1350.13 2835.74,1149.34 2810.82,1149.34 2810.82,1388.34 2831.82,1388.34 2831.82,1186.26 
			2951.59,1388.34 2975.82,1388.34 2975.82,1149.34 2954.82,1149.34 		"/>
		<path class="st0" d="M2653.56,1149.34l-88.37,239h22.26l26.56-73h105l25.92,73h22.27l-88.38-239H2653.56z M2621.29,1295.34
			l44.58-123.29l45.54,123.29H2621.29z"/>
		<rect x="2500.58" y="1149.34" class="st0" width="21" height="239"/>
		<polygon class="st0" points="2336.97,1149.34 2315.97,1149.34 2315.97,1388.34 2456.97,1388.34 2456.97,1368.34 2336.97,1368.34 
					"/>
		<path class="st0" d="M2253.21,1166.13c-12.56-11.2-31.51-16.79-56.85-16.79h-80.35v239h21v-104h49.3
			c28.68,0,50.25-5.71,64.69-17.12c14.25-11.19,21.36-28.1,21.36-50.7C2272.36,1194.12,2265.97,1177.33,2253.21,1166.13z
			 M2234.99,1253.31c-10.08,7.35-26.15,11.03-48.2,11.03h-49.78v-96h58.92c18.69,0,32.55,3.78,41.58,11.35s13.55,19.46,13.55,35.67
			C2251.06,1232.87,2245.7,1245.53,2234.99,1253.31z"/>
		<polygon class="st0" points="1971.22,1354.01 1899.94,1149.34 1871.39,1149.34 1871.39,1388.34 1892.39,1388.34 1892.39,1182.69 
			1963.34,1388.34 1980.12,1388.34 2051.39,1182.69 2051.39,1388.34 2072.39,1388.34 2072.39,1149.34 2042.16,1149.34 		"/>
		<path class="st0" d="M1725.01,1142.93c-30.14,0-54.28,11.14-72.41,33.41c-18.55,22.93-27.82,53.75-27.82,92.46
			c0,38.5,9.27,69.21,27.82,92.14c18.34,22.71,42.48,34.06,72.41,34.06c30.99,0,55.76-11.35,74.31-34.06
			c18.97-22.71,28.46-53.42,28.46-92.14c0-38.93-9.49-69.75-28.46-92.46C1780.77,1154.07,1756,1142.93,1725.01,1142.93z
			 M1783.83,1347.31c-14.55,18.82-34.15,28.23-58.82,28.23c-23.61,0-42.58-9.41-56.91-28.23c-14.76-19.46-22.14-45.63-22.14-78.51
			c0-32.87,7.49-59.04,22.45-78.51c14.34-18.6,33.2-27.9,56.6-27.9c24.67,0,44.27,9.3,58.82,27.9
			c15.17,19.04,22.76,45.21,22.76,78.51C1806.59,1301.89,1799,1328.06,1783.83,1347.31z"/>
		<path class="st0" d="M1539.19,1357.96c-12.42,11.65-28.94,17.48-49.56,17.48c-24.83,0-44.4-9.28-58.71-27.85
			c-14.3-19-21.46-45.44-21.46-79.34c0-33.68,7.05-59.7,21.14-78.05c14.11-17.92,33.67-26.87,58.72-26.87
			c19.36,0,35.14,4.96,47.35,14.89c12.2,9.93,19.36,23.64,21.46,41.13h21.15c-1.48-22.88-10.21-41.24-26.2-55.05
			c-16.2-13.82-37.45-20.72-63.76-20.72c-31.35,0-56.08,10.9-74.18,32.7c-18.52,22.24-27.78,53.01-27.78,92.3
			c0,39.51,9.15,70.5,27.46,92.95c17.89,22.46,42.52,33.68,73.87,33.68c27.35,0,49.13-7.56,65.34-22.67
			c16.2-15.11,25.26-35.84,27.14-62.18h-20.83C1558.65,1330.64,1551.59,1346.51,1539.19,1357.96z"/>
	</g>
	<g>
		<path class="st1" d="M974.29,1320.11h27.27l-1.74,91.96h0.02l-1.03,53.38l-2.68,141.34l1.07,1.25c4.34,6.31,7.2,17,7.2,29.12
			s-2.85,22.81-7.2,29.12l-2.25,2.62l-0.06,3.37l-6.82,21.22l-7.11-21.22l-0.07-3.72l-1.95-2.28c-4.34-6.31-7.2-17-7.2-29.12
			s2.85-22.81,7.2-29.12l0.78-0.92l-2.68-141.68h0.19l-1.03-53.11h-0.16L974.29,1320.11L974.29,1320.11z"/>
		<path class="st1" d="M897.72,1295.58l1.65,0.79c7.56,4.59,17.82,11.3,28.42,14.72c2.65,0.85,6.05,2.6,9.69,4.5l0.43,0.22
			l-2.4,1.03c-1.68,0.79-5.59,2.74-6.66,3.42l-0.77,0.58l-0.07,0.11c-2.03,3.66-7.43,7.22-9.77,15.59s-4.68,18.95-4.27,34.63
			s3.91,42.65,5.74,60.69c1.82,18.04,3.06,31.98,5.21,47.56c2.15,15.59,4.25,32.83,7.7,45.95s6.72,24.41,12.98,32.77
			c6.25,8.36,24.45,15.35,24.55,17.37s-15.61,1.93-21.98,0s-11.04-5.86-16.24-11.59s-11.05-15.17-14.98-22.78s-5.65-12.66-8.59-22.9
			s-4.31-16.88-9.03-38.55c-4.72-21.68-15.45-68.47-19.28-91.5s-3.91-35.21-3.68-46.69s4.06-17.92,5.08-22.16
			c1.03-4.24,0.78-2.33,1.08-3.27l0.65-1.87c0-0.01,0-0.01,0-0.02c0.76-2.93,1.03-2.01,3.59-5.25c1.92-2.43,4.94-6.77,8.3-10.62
			L897.72,1295.58z"/>
		<path class="st1" d="M1084.41,1286.02l0.24,0.14C1085.22,1286.59,1084.46,1286.64,1084.41,1286.02L1084.41,1286.02
			L1084.41,1286.02z"/>
		<path class="st1" d="M921.23,1134.37l0.69,0.04c0.59,0.14,0.65,0.29-0.55-0.01L921.23,1134.37z"/>
		<polygon class="st1" points="970.74,1132.85 1005.1,1132.85 1002.88,1250.24 972.96,1250.24 		"/>
		<path class="st1" d="M864.55,1117.52c5.61,0.69,12.19,5.24,19.75,7.18l35.41,9.24l1.52,0.43l-0.98-0.06
			c-0.65,0.07-1.31,0.28-1.76,0.79c-1.83,2.02-5.9,5.68-9.77,10.97c-3.87,5.29-10.48,14.82-13.43,20.78
			c-2.95,5.96-3.46,8.85-4.27,15.01s-2.54,14.24-0.61,21.94s5.39,16.74,12.21,24.24s17.3,15.3,28.69,20.78
			c11.4,5.48,26.15,9.04,39.68,12.12c13.53,3.08,27.27,3.17,41.51,6.35c14.25,3.17,31.29,5.57,43.96,12.7l4.58,3.07l0.04-0.04
			c2.5-0.31,11.65,7.41,16.33,11.73c4.68,4.32,9.2,10.96,11.76,14.2s2.83,2.32,3.59,5.25c0,0.01,0,0.01,0,0.02l0.65,1.87
			c0.29,0.94,0.05-0.97,1.08,3.27c1.03,4.24,4.85,10.69,5.08,22.16c0.23,11.48,0.15,23.66-3.68,46.69
			c-3.83,23.03-14.56,69.82-19.28,91.5c-4.72,21.67-6.09,28.31-9.03,38.55c-2.94,10.24-4.66,15.29-8.59,22.9
			c-3.93,7.61-9.78,17.05-14.98,22.78s-9.87,9.65-16.24,11.59c-6.37,1.93-22.08,2.02-21.98,0c0.1-2.02,18.29-9.01,24.55-17.37
			c6.25-8.36,9.53-19.65,12.98-32.77s5.54-30.36,7.7-45.95c2.15-15.59,3.39-29.52,5.21-47.56s5.33-45.01,5.74-60.69
			c0.41-15.68-1.93-26.26-4.27-34.63s-7.73-11.93-9.77-15.59l-0.07-0.11l-0.77-0.58c-1.07-0.68-4.98-2.63-6.66-3.42
			c-6.72-3.17-16.55-6.57-26.08-8.58c-9.54-2.01-31.14-3.46-31.14-3.46c-8.95-0.96-14.65-1.15-22.59-2.31
			c-7.94-1.15-15.57-1.92-25.03-4.62c-9.46-2.69-20.96-6.16-31.75-11.54c-10.79-5.39-23.91-12.99-32.97-20.78
			s-15.98-17.32-21.37-25.98s-8.55-16.07-10.99-25.98s-4.68-22.13-3.66-33.48s5.8-24.63,9.77-34.63
			c3.97-10.01,8.04-23.67,14.65-27.13C860.92,1117.49,862.68,1117.29,864.55,1117.52L864.55,1117.52z"/>
		<polygon class="st1" points="967.08,939.99 1008.76,939.99 1006.61,1053.19 969.23,1053.19 		"/>
		<path class="st1" d="M898.95,942.88c-2.14,1.54-9.26,5.77-12.82,8.08s-5.7,3.17-8.55,5.77c-2.85,2.6-6,6.06-8.55,9.81
			c-2.54,3.75-4.88,7.5-6.72,12.7c-1.83,5.2-3.36,12.7-4.27,18.47c-0.92,5.77-1.83,10.58-1.22,16.16
			c0.61,5.58,1.12,11.83,4.88,17.32c3.76,5.48,9.56,10.97,17.7,15.59s17.4,8.85,31.14,12.12s36.32,6.16,51.28,7.5
			c14.96,1.35,24.42-0.58,38.46,0.58c14.04,1.15,32.05,2.79,45.79,6.35c13.74,3.56,25.54,9.04,36.63,15.01
			c11.09,5.96,22.59,13.85,29.92,20.78c7.33,6.93,9.16,12.41,14.04,20.78s12.21,21.36,15.26,29.44c1.53,4.04,2.49,7.65,2.98,10.82
			l0.19,2.3l0.84,3.04c0.14,1.13,0.17,2.36,0.27,4.04c0.2,3.37,0.2,8.27,0,12.7c-0.2,4.43-0.2,8.95-1.22,13.85
			c-1.02,4.91-2.03,9.14-4.88,15.59s-7.22,15.87-12.21,23.09s-10.79,13.76-17.7,20.2c-6.92,6.45-19.43,15.01-23.81,18.47
			c-1.09,0.87-1.62,1.52-1.84,2l-0.13,0.58l-0.47-0.27c-2.75-1.25-9.87-7.02-14.04-9.81s-5.8-4.71-10.99-6.93
			c-5.19-2.21-14.45-4.62-20.15-6.35c-5.7-1.73-10.79-3.17-14.04-4.04c-3.26-0.87-6.31-0.77-5.49-1.15c0.81-0.38,6.21,0,10.38-1.15
			s9.06-3.08,14.65-5.77c5.6-2.69,13.33-6.93,18.93-10.39c5.6-3.46,10.68-6.73,14.65-10.39s6.72-7.02,9.16-11.54
			c2.44-4.52,4.58-10.58,5.49-15.59c0.92-5,0.81-9.14,0-14.43c-0.41-2.65-1.12-5.47-1.98-8.39l-1.41-4.35l-0.02-0.04
			c-2.49-5.48-4.29-12.84-7.57-17.82c-4.38-6.64-8.85-12.41-15.87-17.32c-7.02-4.91-16.79-9.04-26.25-12.12s-20.05-5.48-30.53-6.35
			c-10.48-0.87-18.62,1.15-32.36,1.15s-34.8,0.48-50.06-1.15c-15.26-1.64-28.49-4.91-41.51-8.66s-25.23-7.6-36.63-13.85
			s-23.81-16.26-31.75-23.67s-11.6-13.56-15.87-20.78s-7.84-13.56-9.77-22.51c-1.93-8.95-2.34-20.49-1.83-31.17
			s-0.1-19.05,4.88-32.9c4.99-13.85,15.67-42.81,25.03-50.22c2.34-1.85,4.88-2.57,7.53-2.57l0,0c7.93,0,16.74,6.47,23.61,8.35
			c9.16,2.5,15.06,6.54,23.81,9.24c8.75,2.69,24.52,5.48,28.69,6.93"/>
		<polygon class="st1" points="962.69,708 1013.15,708 1010.61,842.16 965.23,842.16 		"/>
		<path class="st1" d="M780.21,678.26l0.45,0.18c9.54,4.96,34.64,12.9,52.49,17.87c15.62,4.34,33.64,8.18,48.46,10.84l3.85,0.67
			l-8.68,2.85c-17.4,6.49-33.86,15.15-43.71,25.35c-13.13,13.59-19.5,25.72-20.72,38.55c-1.23,12.84,4.54,27.99,13.36,38.48
			c8.82,10.48,26.64,18.2,39.54,24.43c12.9,6.22,32.85,10.76,37.89,12.92l0.13,0.06l-0.15,0.24l0.57,0.14l0.85,0.21l-1.27-0.6
			l0.02-0.03c0.01-0.08,0.03-0.16,0.24-0.27c0.29-0.16,1.94,0.59,3.38,1.36l0.37,0.21l4.82,1.18c2.9,0.65,5.87,1.23,8.84,1.66
			c11.91,1.73,25.74,2.41,40.29,3.46l47.01,2.89c0,0,25.54-0.1,40.29,2.31s35.51,7.99,48.23,12.12c12.72,4.14,19.33,7.41,28.08,12.7
			c8.75,5.29,16.89,11.74,24.42,19.05s15.06,15.78,20.76,24.82s9.87,18.95,13.43,29.44s6.82,22.8,7.94,33.48s1.22,19.24-1.22,30.59
			c-2.44,11.35-6.51,27.32-13.43,37.52c-6.92,10.2-20.86,17.89-28.08,23.67c-7.22,5.77-12.41,8.85-15.26,10.97s0.92,3.27-1.83,1.73
			c0,0-7.83-6.16-14.65-10.97c-6.82-4.81-17.6-13.47-26.25-17.89c-8.65-4.43-21.16-7.12-25.64-8.66c0,0-2.65,0-1.22-0.58
			c0,0,2.54,0,9.77-2.89c7.22-2.89,25.23-8.56,33.58-14.43c8.34-5.87,13.33-14.53,16.48-20.78s2.54-10.1,2.44-16.74
			c-0.1-6.64-0.41-16.07-3.05-23.09c-2.65-7.02-6.61-12.41-12.82-19.05s-13.43-15.3-24.42-20.78c-10.99-5.48-27.27-9.72-41.51-12.12
			c-14.25-2.41-29.61-1.92-43.96-2.31c-14.35-0.38-23.71,1.44-42.13,0s-49.25-5.1-68.38-8.66s-32.97-8.18-46.4-12.7
			c-10.07-3.39-22.72-6.51-29.58-10.34l-2.66-1.81l-0.91,0.35c-2.96,0.98-1.28-1.01-6.91-4.38c-7.51-4.5-23.88-15.82-33.19-24.64
			s-16.77-18.12-22.68-28.26s-11.06-18.71-12.77-32.59c-1.7-13.88,0.21-36.61,2.55-50.69c2.34-14.08,5.11-21.72,11.49-33.79
			s16.17-27.36,26.81-38.62L780.21,678.26z"/>
		<polygon class="st1" points="968.79,415.36 1007.05,415.36 1017.92,456.45 1015.3,594.8 960.54,594.8 957.92,456.45 		"/>
		<path class="st1" d="M1025.87,363.1l0.16,0.24c-0.01,0.03-0.06,0.01-0.13-0.05L1025.87,363.1z"/>
		<path class="st1" d="M950.4,362.97l-0.17,0.31c-0.13,0.14-0.23,0.08,0.05-0.22L950.4,362.97z"/>
		<path class="st1" d="M1243.5,755.33c-2.34-14.08-5.11-21.72-11.49-33.79c-6.38-12.06-16.17-27.35-26.81-38.62
			c-10.64-11.26-21.06-20.12-37.02-28.96c-15.95-8.85-35.1-17.9-58.72-24.14c-23.61-6.24-52.12-9.65-82.97-13.28
			c-30.85-3.62-72.77-5.03-102.12-8.45c-29.36-3.42-52.02-5.56-74.04-12.07c-22.01-6.51-43.79-17.73-58.05-26.98
			s-23.22-14.45-27.47-28.54c-4.26-15.29-7.75-27.45-4.58-48.28c3.16-20.83,6.42-25.32,10.96-35c4.54-9.68,10.9-16.89,16.3-23.08
			c5.39-6.19,10.06-11.06,16.06-14.05c6.01-2.99,11-4.46,19.98-3.9c8.97,0.56,24.08,4.42,33.87,7.24c9.78,2.82,14.36,8.8,24.84,9.65
			c10.49,0.85,25.94-1.5,38.07-4.54c12.12-3.04,26.72-8.88,34.69-13.71c7.97-4.82,12.28-9.86,13.13-15.26
			c0.85-5.41-3.35-11.53-8.03-17.18c-4.68-5.66-12.18-11.52-20.05-16.75s-16.48-11.19-27.18-14.63s-25.53-5.83-37.02-6.04
			c-11.48-0.2-30.83,2.39-45.29,5c-14.47,2.61-26.61,6.87-41.5,10.69c-14.9,3.82-24.68,7.64-34.47,12.07
			c-9.78,4.42-14.04,6.23-24.25,14.48c-10.22,8.24-27.87,23.13-37.02,35s-13.83,21.12-17.87,36.21s-6.59,38.02-6.38,54.31
			c0.21,16.29,1.49,26.75,7.66,43.45s15.33,40.64,29.36,56.73c14.03,16.09,35.03,29.16,54.82,39.82
			c19.79,10.66,38.14,17.71,63.9,24.14s59.99,11.26,90.63,14.48s64.68,2.57,93.19,4.83c28.51,2.26,54.69,2.09,77.87,8.73
			c23.18,6.64,48.07,17.5,61.2,31.1s19.5,25.72,20.72,38.56c1.23,12.84,1.77,25.84-13.36,38.47
			c-15.13,12.64-66.05,32.01-66.05,32.01l-11.51,5.4l0.2,0.32c0.39,0.34,5.79,2.47,9.22,3.82c6.86,2.71,17.67,4.97,31.48,11.76
			c13.82,6.8,38.39,21.37,47.16,27.48c4.41,3.07,0.64,4.71,11.86-2.34c7.41-4.66,23.88-15.82,33.18-24.64
			c9.31-8.82,16.77-18.11,22.68-28.26c5.91-10.13,11.06-18.7,12.76-32.58C1247.75,792.14,1245.84,769.41,1243.5,755.33z
			 M905.83,366.13c5.83,0,10.55,2.61,10.55,5.84s-4.72,5.84-10.55,5.84c-5.82,0-10.55-2.61-10.55-5.84
			C895.28,368.75,900,366.13,905.83,366.13z"/>
		<path class="st1" d="M1305.31,458.42c-4.05-15.09-8.73-24.34-17.87-36.21c-9.15-11.87-26.81-26.76-37.02-35
			c-10.21-8.25-14.47-10.06-24.26-14.48c-9.79-4.43-19.57-8.25-34.47-12.07c-14.89-3.82-40.42-8.25-54.89-10.87
			c-14.47-2.61-20.43-5.03-31.92-4.83c-11.48,0.2-26.32,2.59-37.02,6.04c-10.69,3.44-19.3,9.4-27.17,14.63s-15.38,11.09-20.06,16.75
			c-4.68,5.65-8.88,11.77-8.02,17.18c0.85,5.4,5.16,10.43,13.13,15.26c7.97,4.83,22.57,10.66,34.69,13.71
			c12.12,3.04,27.59,5.4,38.07,4.54c10.49-0.85,15.06-6.83,24.85-9.65c9.79-2.82,24.9-6.68,33.87-7.24s13.96,0.91,19.98,3.9
			c6.01,2.99,10.67,7.87,16.06,14.05c5.4,6.19,11.75,13.4,16.3,23.08c4.54,9.68,7.8,14.17,10.96,35
			c3.16,20.83-0.32,32.99-4.58,48.28c-4.26,14.08-13.22,19.28-27.47,28.54c-14.26,9.25-36.04,20.47-58.05,26.98
			c-6.89,2.03-13.83,3.64-21.02,5c-7.2,1.35-14.63,2.45-22.5,3.47l-1.98,1.57c9.96,2.13,15.21,4.58,25.38,7.87
			c13.56,4.39,30.8,10.84,44.1,16.37c13.29,5.55,26.33,11.75,35.69,16.88c0,0,9.45,5.07,15.72,9.67l2.27,1.79l11.77-5.89
			c19.79-10.66,40.79-23.74,54.82-39.82c14.03-16.09,23.19-40.03,29.36-56.73s7.45-27.16,7.66-43.45
			C1311.91,496.44,1309.35,473.51,1305.31,458.42z M1070.3,377.81c-5.82,0-10.55-2.61-10.55-5.84s4.72-5.84,10.55-5.84
			c5.82,0,10.55,2.61,10.55,5.84C1080.85,375.2,1076.13,377.81,1070.3,377.81z"/>
		<path class="st1" d="M1278,260.66c0.13,0.01,0.36,0.09,0.72,0.27l0.7,0.42l-0.44,0.01C1278.18,261.22,1277.62,260.64,1278,260.66
			L1278,260.66z"/>
		<path class="st1" d="M956.77,181.8h62.31c6.32,0,11.44,4.84,11.44,10.81v4.73c0,5.97-5.12,10.81-11.44,10.81h-15.23l4.76,82.9
			h-41.35l4.76-82.9h-15.23c-6.32,0-11.43-4.84-11.43-10.81v-4.73C945.33,186.64,950.45,181.8,956.77,181.8L956.77,181.8z"/>
		<path class="st1" d="M1522.18,180.55c0.22,0.14,0.29,0.47-0.08,1.06l-0.04,0.08l-0.66-0.28
			C1520.7,180.73,1521.74,180.27,1522.18,180.55L1522.18,180.55z"/>
		<line class="st2" x1="454.06" y1="181.69" x2="454.03" y2="181.61"/>
		<g>
			<path class="st1" d="M719.8,258.49c3.13-0.16,11.3,4.31,16.02,5.48c7.55,1.86,14.71,5.48,23.91,10.14
				c9.2,4.66,20.36,11.8,27.59,16.77c7.23,4.97,15.77,13.04,15.77,13.04l-2.96,1.86c-7.23,4.04-22.34,13.04-40.4,22.36
				c-18.07,9.32-48.28,24.22-67.99,33.54c-19.71,9.32-34,15.53-50.25,22.36s-32.85,14.13-47.3,18.63s-17.44,6.6-30.74,8.78
				c-13.3,2.17-21.3,3.25-38.81,4.9c-14.91,1.41-46.56,1.68-64.13-0.64c-17.57-2.33-40.28-7.35-53.42-12.17
				c-13.14-4.81-34.09-14.2-19.84-15.77c24.36-2.69,69.63-11.65,100.51-20.5s55.42-16.31,85.48-29.2
				c30.05-12.89,73.55-35.22,97.2-47.18s27.88-16.2,37.96-24.95C711.69,263.1,717.93,258.59,719.8,258.49L719.8,258.49z"/>
			<path class="st1" d="M682.88,263.77c-7.57,6.44-18.1,9.66-35.41,19.97c-22.14,13.19-57.22,29.97-90.72,42.54
				c-33.5,12.58-75.38,28.16-110.36,35.4c-38.64,8-65.9,12.58-99.56,13.98c-33.67,1.4-78.07-0.84-102.44-5.59
				c-31.67-6.18-29.18-5.24-43.36-10.25c-12.32-4.35-41.29-15.38-35.05-19.57c6.24-4.19,49.63,0.2,74.6-4.14
				c24.96-4.35,46.19-4.94,87.78-15.07c0,0,27.5-4.52,65.56-17.33c22.76-7.66,51.59-18.16,80.37-27.56c0,0,36.81-13.84,54.87-20.67
				c18.07-6.83,29.01-12.7,39.52-17.36s16.32-7.79,23.55-10.59s9.53-7.61,19.71-8.38c2.55-0.19,5.7-0.26,9.17-0.2l10.42,0.17
				c10.42,0.17,13.3,1.31,21.8,3.76c11.33,3.26,21.54,9.65,28.44,14.15s14.44,11.23,16.58,13.56"/>
			<path class="st1" d="M453.31,170.77l0.16,0.37c0.88,2.05,4.55,10.51,6.7,14.45c2.46,4.5,9.99,13.43,16.4,17.78
				s15.17,8.06,25.84,11.79c10.67,3.73,20.66,3.35,29.69,4.9c9.03,1.55,13.63,1.09,20.69,0.93s16.92-1.55,21.68-1.86
				s13.8-3.26,6.9,0c-6.9,3.26-25.29,11.18-48.28,19.57c-22.99,8.38-59.29,21.27-89.67,30.74c-30.38,9.47-59.78,19.97-92.46,28.05
				c-32.68,8.07-66.97,12.7-100.97,17.51s-70.91,6.94-98.33,6.78c-27.43-0.16-52.46-3.81-69.7-7.54s-27.76-7.07-38.6-12.2
				c-10.84-5.12-19.35-13.06-26.58-20.2C9.55,274.71,5.26,269.14,0,259.2l87.7-10.25c0,0,48.61-6.37,71.93-10.25
				s35.8-6.52,67.99-13.04c32.19-6.52,93.61-18.48,125.14-26.09s47.63-14.91,64.05-19.57c16.42-4.66,28.41-6.83,34.49-8.39
				L453.31,170.77z"/>
			<path class="st1" d="M947.94,356.57c-4.43-2.95-8.64-7.92-25.07-15.53c-16.42-7.61-46.7-17.39-73.47-30.12
				c-26.77-12.73-51.57-30.43-84.74-47.52c-33.17-17.08-81.95-45.03-114.3-54.97s-57.43,0.24-78.62-1.47s-43.68-2.55-57.64-6.28
				c-13.96-3.73-20.68-10.39-29.39-15.82c-8.7-5.43-10.76-15.82-4.52-23.74c6.24-7.92,24.66-17.14,44.04-27.23
				s39.25-19.57,65.04-30.75c25.78-11.18,64.54-28.42,89.67-36.34s44.51-10.09,61.09-11.18c2.07-0.14,4.06-0.21,5.96-0.22l0,0
				c1.9-0.01,3.73,0.03,5.49,0.12c10.56,0.54,18.72,2.78,26.97,4.76c11,2.64,18.89,5.59,27.59,11.18s19.22,13.66,24.63,22.36
				c5.42,8.7,6.08,16.61,7.88,29.81c1.81,13.2-0.82,32.61,2.96,49.38s9.2,37.58,19.71,51.24s19.8,26.43,33.01,35.57
				c13.62,9.42,30,19.12,40.11,25.64c10.23,6.6,27.99,15,35.99,20.29c8.78,5.81,9.46,3.9,13.07,9.8s-1.79,13-7.04,19.99
				c-5.26,6.99-13.45,14.87-13.45,14.87c-0.7,0.41-8.73,5.56-12.63,8.08"/>
		</g>
		<g>
			<path class="st1" d="M1260.17,258.49c-3.13-0.16-11.3,4.31-16.02,5.48c-7.55,1.86-14.71,5.48-23.91,10.14
				c-9.2,4.66-20.36,11.8-27.59,16.77s-15.77,13.04-15.77,13.04l2.96,1.86c7.23,4.04,22.34,13.04,40.4,22.36
				c18.07,9.32,48.28,24.22,67.99,33.54s34,15.53,50.25,22.36s32.85,14.13,47.3,18.63c14.45,4.5,17.44,6.6,30.74,8.78
				c13.3,2.17,21.3,3.25,38.81,4.9c14.91,1.41,46.56,1.68,64.13-0.64c17.57-2.33,40.28-7.35,53.42-12.17
				c13.14-4.81,34.09-14.2,19.84-15.77c-24.36-2.69-69.63-11.65-100.51-20.5s-55.42-16.31-85.48-29.2
				c-30.05-12.89-73.55-35.22-97.2-47.18c-23.65-11.96-27.88-16.2-37.96-24.95C1268.28,263.1,1262.05,258.59,1260.17,258.49
				L1260.17,258.49z"/>
			<path class="st1" d="M1297.09,263.77c7.57,6.44,18.1,9.66,35.41,19.97c22.14,13.19,57.22,29.97,90.72,42.54
				c33.5,12.58,75.38,28.16,110.36,35.4c38.64,8,65.9,12.58,99.56,13.98c33.67,1.4,78.07-0.84,102.44-5.59
				c31.67-6.18,29.18-5.24,43.36-10.25c12.32-4.35,41.29-15.38,35.05-19.57s-49.63,0.2-74.6-4.14
				c-24.96-4.35-46.19-4.94-87.78-15.07c0,0-27.5-4.52-65.56-17.33c-22.76-7.66-51.59-18.16-80.37-27.56
				c0,0-36.81-13.84-54.87-20.67c-18.07-6.83-29.01-12.7-39.52-17.36s-16.32-7.79-23.55-10.59c-7.23-2.8-9.53-7.61-19.71-8.38
				c-2.55-0.19-5.7-0.26-9.17-0.2l-10.42,0.17c-10.42,0.17-13.3,1.31-21.8,3.76c-11.33,3.26-21.54,9.65-28.44,14.15
				c-6.9,4.5-14.44,11.23-16.58,13.56"/>
			<path class="st1" d="M1526.66,170.77l-0.16,0.37c-0.88,2.05-4.55,10.51-6.7,14.45c-2.46,4.5-9.99,13.43-16.4,17.78
				s-15.17,8.06-25.84,11.79c-10.67,3.73-20.66,3.35-29.69,4.9c-9.03,1.55-13.63,1.09-20.69,0.93c-7.06-0.16-16.92-1.55-21.68-1.86
				s-13.8-3.26-6.9,0s25.29,11.18,48.28,19.57c22.99,8.38,59.29,21.27,89.67,30.74s59.78,19.97,92.46,28.05
				c32.68,8.07,66.97,12.7,100.97,17.51s70.91,6.94,98.33,6.78c27.43-0.16,52.46-3.81,69.7-7.54s27.76-7.07,38.6-12.2
				s19.35-13.06,26.58-20.2s11.52-12.71,16.78-22.65l-87.7-10.25c0,0-48.61-6.37-71.93-10.25c-23.32-3.88-35.8-6.52-67.99-13.04
				c-32.19-6.52-93.61-18.48-125.14-26.09s-47.63-14.91-64.05-19.57c-16.42-4.66-28.41-6.83-34.49-8.39L1526.66,170.77z"/>
			<path class="st1" d="M1032.03,356.57c4.43-2.95,8.64-7.92,25.07-15.53c16.42-7.61,46.7-17.39,73.47-30.12
				s51.57-30.43,84.74-47.52c33.17-17.08,81.95-45.03,114.3-54.97c32.35-9.94,57.43,0.24,78.62-1.47s43.68-2.55,57.64-6.28
				s20.68-10.39,29.39-15.82c8.7-5.43,10.76-15.82,4.52-23.74s-24.66-17.14-44.04-27.23s-39.25-19.57-65.04-30.75
				c-25.78-11.18-64.54-28.42-89.67-36.34s-44.51-10.09-61.09-11.18c-2.07-0.14-4.06-0.21-5.96-0.22l0,0
				c-1.91-0.01-3.73,0.03-5.49,0.12c-10.56,0.54-18.72,2.78-26.97,4.76c-11,2.64-18.89,5.59-27.59,11.18s-19.22,13.66-24.63,22.36
				c-5.42,8.7-6.08,16.61-7.88,29.81c-1.81,13.2,0.82,32.61-2.96,49.38c-3.78,16.77-9.2,37.58-19.71,51.24s-19.8,26.43-33.01,35.57
				c-13.62,9.42-30,19.12-40.11,25.64c-10.23,6.6-27.99,15-35.99,20.29c-8.78,5.81-9.46,3.9-13.07,9.8s1.79,13,7.04,19.99
				c5.26,6.99,13.45,14.87,13.45,14.87c0.7,0.41,8.73,5.56,12.63,8.08"/>
		</g>
		
			<ellipse transform="matrix(0.7071 -0.7071 0.7071 0.7071 228.9749 723.5752)" class="st1" cx="987.92" cy="85.39" rx="85.39" ry="85.39"/>
	</g>
</g>
</svg>
