<?xml version="1.0" encoding="utf-8"?>
<!-- Generator: Adobe Illustrator 25.4.0, SVG Export Plug-In . SVG Version: 6.00 Build 0)  -->
<svg version="1.1" id="Layer_1" xmlns="http://www.w3.org/2000/svg" xmlns:xlink="http://www.w3.org/1999/xlink" x="0px" y="0px"
	 viewBox="0 0 107.39 26.38" style="enable-background:new 0 0 107.39 26.38;" xml:space="preserve">
<style type="text/css">
	.st0{fill:#FFFFFF;}
	.st1{fill-rule:evenodd;clip-rule:evenodd;fill:#1C213F;}
	.st2{fill:#33CCFF;}
	.st3{fill:#3399FF;}
	.st4{fill:#5379FA;}
	.st5{fill:#80BC00;}
</style>
<g>
	<path class="st0" d="M0.66,93.94H30.5v29.83H0.66V93.94z"/>
	<path class="st1" d="M22.84,115.78c-1.83,1.92-4.41,3.11-7.26,3.11c-0.2,0-0.4-0.01-0.6-0.02l4.33-7.5
		c0.19-0.28,0.35-0.58,0.47-0.89L22.84,115.78z M23.98,114.35c1.03-1.58,1.63-3.46,1.63-5.49c0-0.99-0.14-1.95-0.41-2.85h-6.08
		c0.06,0.07,0.11,0.15,0.16,0.22c0.13,0.19,0.25,0.38,0.34,0.58L23.98,114.35z M15.58,104.31L15.58,104.31l8.94,0
		c-1.66-3.25-5.04-5.48-8.94-5.48c-5.54,0-10.03,4.49-10.03,10.03c0,4.71,3.25,8.66,7.62,9.74l3.07-5.31
		c-1.63,0.24-3.34-0.44-4.35-1.88c-1.43-2.04-0.93-4.86,1.11-6.29C13.79,104.57,14.69,104.31,15.58,104.31z"/>
	<path class="st0" d="M43.46,103.76c-0.88,0-1.67-0.19-2.37-0.56c-0.7-0.37-1.24-0.88-1.65-1.54c-0.39-0.66-0.59-1.39-0.59-2.22
		c0-0.82,0.2-1.56,0.59-2.22c0.4-0.66,0.95-1.17,1.65-1.54c0.7-0.37,1.49-0.56,2.37-0.56c0.88,0,1.66,0.19,2.36,0.56
		c0.7,0.37,1.25,0.88,1.65,1.54c0.4,0.66,0.6,1.39,0.6,2.22c0,0.82-0.2,1.56-0.6,2.22c-0.39,0.66-0.94,1.17-1.65,1.54
		C45.12,103.58,44.33,103.76,43.46,103.76z M43.46,101.82c0.42,0,0.8-0.1,1.14-0.3c0.34-0.2,0.61-0.47,0.81-0.83
		c0.2-0.36,0.3-0.78,0.3-1.24c0-0.47-0.1-0.88-0.3-1.23c-0.2-0.36-0.47-0.64-0.81-0.84c-0.34-0.2-0.72-0.3-1.14-0.3
		s-0.8,0.1-1.14,0.3c-0.34,0.2-0.61,0.48-0.81,0.84c-0.2,0.36-0.3,0.77-0.3,1.23c0,0.47,0.1,0.88,0.3,1.24
		c0.2,0.36,0.47,0.63,0.81,0.83C42.66,101.72,43.04,101.82,43.46,101.82z"/>
	<path class="st0" d="M56.78,103.6l-0.02-4.39l-2.13,3.58h-1.04l-2.12-3.46v4.28h-2.17V95.3h1.93l2.91,4.79l2.84-4.79h1.93
		l0.02,8.29H56.78z"/>
	<path class="st0" d="M43.39,106.69c0.75,0,1.4,0.13,1.95,0.38c0.55,0.24,0.98,0.6,1.28,1.07c0.3,0.46,0.45,1,0.45,1.62
		c0,0.62-0.15,1.16-0.45,1.62c-0.3,0.46-0.73,0.81-1.28,1.07c-0.55,0.24-1.2,0.37-1.95,0.37h-1.45v2.17H39.6v-8.29H43.39z
		 M43.25,110.97c0.48,0,0.85-0.1,1.09-0.31c0.24-0.21,0.37-0.51,0.37-0.9c0-0.39-0.12-0.69-0.37-0.9c-0.24-0.21-0.61-0.32-1.09-0.32
		h-1.3v2.43H43.25z"/>
	<path class="st0" d="M48.22,106.69h2.35v6.43h3.96v1.86h-6.3V106.69z"/>
	<path class="st0" d="M61.09,113.37h-3.51l-0.65,1.61h-2.39l3.66-8.29h2.31l3.67,8.29h-2.44L61.09,113.37z M60.41,111.64l-1.07-2.65
		l-1.07,2.65H60.41z"/>
	<path class="st0" d="M66.2,108.55h-2.55v-1.86h7.43v1.86h-2.54v6.43H66.2V108.55z"/>
	<path class="st0" d="M74.3,108.51v1.82h3.66v1.81H74.3v2.84h-2.35v-8.29h6.5v1.81H74.3z"/>
	<path class="st0" d="M83.67,115.15c-0.88,0-1.67-0.19-2.37-0.56c-0.69-0.37-1.24-0.88-1.65-1.54c-0.39-0.66-0.59-1.39-0.59-2.22
		c0-0.82,0.2-1.56,0.59-2.22c0.4-0.66,0.95-1.17,1.65-1.54c0.7-0.37,1.49-0.56,2.37-0.56c0.88,0,1.66,0.19,2.36,0.56
		c0.7,0.37,1.25,0.88,1.65,1.54c0.4,0.66,0.6,1.39,0.6,2.22c0,0.82-0.2,1.56-0.6,2.22c-0.39,0.66-0.94,1.17-1.65,1.54
		C85.33,114.97,84.54,115.15,83.67,115.15z M83.67,113.21c0.42,0,0.8-0.1,1.14-0.3c0.34-0.2,0.61-0.47,0.81-0.83
		c0.2-0.36,0.3-0.78,0.3-1.24c0-0.47-0.1-0.88-0.3-1.23c-0.2-0.36-0.47-0.64-0.81-0.84c-0.34-0.2-0.72-0.3-1.14-0.3
		c-0.42,0-0.8,0.1-1.14,0.3c-0.34,0.2-0.61,0.48-0.81,0.84c-0.2,0.36-0.3,0.77-0.3,1.23c0,0.47,0.1,0.88,0.3,1.24
		c0.2,0.36,0.47,0.63,0.81,0.83C82.87,113.11,83.25,113.21,83.67,113.21z"/>
	<path class="st0" d="M93.13,112.78h-1.28v2.2H89.5v-8.29h3.79c0.75,0,1.4,0.13,1.95,0.38c0.55,0.24,0.98,0.6,1.28,1.07
		c0.3,0.46,0.45,1,0.45,1.62c0,0.6-0.14,1.13-0.43,1.58c-0.28,0.44-0.68,0.79-1.2,1.04l1.79,2.61h-2.51L93.13,112.78z M94.61,109.76
		c0-0.39-0.12-0.69-0.37-0.9c-0.24-0.21-0.61-0.32-1.09-0.32h-1.3v2.43h1.3c0.48,0,0.84-0.1,1.09-0.31
		C94.49,110.45,94.61,110.15,94.61,109.76z"/>
	<path class="st0" d="M105.76,114.99l-0.02-4.39l-2.13,3.58h-1.04l-2.12-3.46v4.28h-2.17v-8.29h1.93l2.91,4.79l2.84-4.79h1.93
		l0.02,8.29H105.76z"/>
	<path class="st0" d="M39.45,118.38h0.47v2.98h1.78v0.42h-2.25V118.38z"/>
	<path class="st0" d="M42.17,119.2h0.45v2.57h-0.45V119.2z M42.39,118.71c-0.09,0-0.16-0.03-0.22-0.09
		c-0.06-0.06-0.08-0.13-0.08-0.21c0-0.08,0.03-0.16,0.08-0.21c0.06-0.06,0.13-0.09,0.22-0.09c0.09,0,0.16,0.03,0.22,0.09
		c0.06,0.06,0.09,0.12,0.09,0.21c0,0.09-0.03,0.16-0.09,0.22C42.55,118.68,42.48,118.71,42.39,118.71z"/>
	<path class="st0" d="M44.39,118.53c-0.27,0-0.4,0.15-0.4,0.45v0.22h0.72v0.38h-0.71v2.19h-0.45v-2.19h-0.42v-0.38h0.42v-0.23
		c0-0.26,0.07-0.46,0.22-0.61c0.14-0.15,0.35-0.22,0.61-0.22c0.1,0,0.19,0.01,0.28,0.04c0.09,0.03,0.16,0.06,0.23,0.11l-0.14,0.35
		C44.63,118.57,44.52,118.53,44.39,118.53z"/>
	<path class="st0" d="M47.34,120.5c0,0.04,0,0.08-0.01,0.14h-2.02c0.03,0.23,0.12,0.41,0.29,0.55c0.17,0.14,0.37,0.2,0.62,0.2
		c0.3,0,0.54-0.1,0.72-0.31l0.25,0.3c-0.11,0.14-0.25,0.24-0.42,0.31c-0.17,0.07-0.35,0.11-0.56,0.11c-0.26,0-0.5-0.06-0.7-0.17
		c-0.2-0.11-0.36-0.27-0.47-0.47c-0.11-0.2-0.16-0.43-0.16-0.68c0-0.25,0.05-0.47,0.16-0.67c0.11-0.2,0.26-0.36,0.45-0.47
		c0.19-0.11,0.41-0.17,0.64-0.17c0.24,0,0.45,0.06,0.63,0.17c0.19,0.11,0.33,0.27,0.44,0.47C47.29,120.01,47.34,120.24,47.34,120.5z
		 M46.12,119.57c-0.22,0-0.4,0.07-0.54,0.2c-0.14,0.14-0.23,0.31-0.25,0.53h1.6c-0.03-0.22-0.11-0.39-0.26-0.53
		C46.51,119.64,46.33,119.57,46.12,119.57z"/>
	<path class="st0" d="M48.68,121.8c-0.2,0-0.4-0.03-0.59-0.08c-0.19-0.06-0.34-0.13-0.44-0.22l0.19-0.37
		c0.11,0.08,0.24,0.15,0.4,0.19c0.16,0.05,0.31,0.07,0.47,0.07c0.39,0,0.59-0.12,0.59-0.35c0-0.08-0.03-0.14-0.08-0.18
		c-0.05-0.05-0.12-0.08-0.2-0.1c-0.08-0.02-0.19-0.05-0.34-0.07c-0.2-0.03-0.36-0.07-0.49-0.11c-0.12-0.04-0.23-0.11-0.32-0.21
		c-0.09-0.1-0.14-0.24-0.14-0.42c0-0.23,0.09-0.42,0.28-0.56c0.19-0.14,0.44-0.21,0.76-0.21c0.17,0,0.33,0.02,0.5,0.06
		c0.17,0.04,0.3,0.1,0.41,0.17l-0.19,0.37c-0.2-0.14-0.44-0.2-0.72-0.2c-0.19,0-0.34,0.03-0.44,0.1c-0.1,0.06-0.15,0.15-0.15,0.26
		c0,0.08,0.03,0.15,0.08,0.2c0.06,0.05,0.12,0.08,0.21,0.11c0.08,0.02,0.2,0.05,0.35,0.08c0.2,0.04,0.36,0.07,0.48,0.12
		c0.13,0.04,0.23,0.11,0.32,0.2c0.09,0.1,0.13,0.23,0.13,0.41c0,0.23-0.1,0.42-0.29,0.56C49.28,121.74,49.02,121.8,48.68,121.8z"/>
	<path class="st0" d="M51.72,121.63c-0.07,0.06-0.15,0.1-0.24,0.14c-0.1,0.03-0.2,0.04-0.3,0.04c-0.25,0-0.44-0.07-0.58-0.21
		c-0.14-0.14-0.21-0.34-0.21-0.6v-1.41h-0.42v-0.38h0.42v-0.56h0.45v0.56h0.71v0.38h-0.71v1.39c0,0.14,0.03,0.25,0.1,0.32
		c0.07,0.07,0.17,0.11,0.29,0.11c0.14,0,0.26-0.04,0.35-0.12L51.72,121.63z"/>
	<path class="st0" d="M54.42,119.2l-1.21,2.83c-0.11,0.26-0.23,0.45-0.38,0.55c-0.14,0.11-0.31,0.16-0.51,0.16
		c-0.12,0-0.24-0.02-0.36-0.06c-0.11-0.04-0.21-0.1-0.28-0.17l0.19-0.35c0.13,0.13,0.28,0.19,0.45,0.19c0.11,0,0.2-0.03,0.27-0.09
		c0.08-0.06,0.14-0.16,0.2-0.31l0.08-0.18l-1.1-2.57h0.47l0.87,2.06l0.86-2.06H54.42z"/>
	<path class="st0" d="M54.84,118.17h0.45v3.6h-0.45V118.17z"/>
	<path class="st0" d="M58.4,120.5c0,0.04,0,0.08-0.01,0.14h-2.02c0.03,0.23,0.12,0.41,0.29,0.55c0.17,0.14,0.37,0.2,0.62,0.2
		c0.3,0,0.54-0.1,0.72-0.31l0.25,0.3c-0.11,0.14-0.25,0.24-0.42,0.31c-0.17,0.07-0.35,0.11-0.56,0.11c-0.26,0-0.5-0.06-0.7-0.17
		c-0.2-0.11-0.36-0.27-0.47-0.47c-0.11-0.2-0.16-0.43-0.16-0.68c0-0.25,0.05-0.47,0.16-0.67c0.11-0.2,0.26-0.36,0.45-0.47
		c0.19-0.11,0.41-0.17,0.64-0.17c0.24,0,0.45,0.06,0.63,0.17c0.19,0.11,0.33,0.27,0.44,0.47C58.35,120.01,58.4,120.24,58.4,120.5z
		 M57.17,119.57c-0.22,0-0.4,0.07-0.54,0.2c-0.14,0.14-0.23,0.31-0.25,0.53h1.6c-0.03-0.22-0.11-0.39-0.26-0.53
		C57.57,119.64,57.39,119.57,57.17,119.57z"/>
	<path class="st0" d="M62.57,120.01c0.19,0.06,0.34,0.16,0.45,0.3c0.11,0.14,0.16,0.32,0.16,0.54c0,0.29-0.11,0.52-0.32,0.68
		c-0.21,0.16-0.52,0.24-0.93,0.24h-1.57v-3.4h1.47c0.38,0,0.66,0.08,0.87,0.23c0.21,0.16,0.31,0.37,0.31,0.65
		c0,0.18-0.04,0.33-0.12,0.46C62.81,119.85,62.7,119.94,62.57,120.01z M60.82,118.77v1.09h0.96c0.24,0,0.43-0.05,0.55-0.14
		c0.13-0.09,0.2-0.23,0.2-0.41c0-0.18-0.07-0.31-0.2-0.4c-0.13-0.09-0.31-0.14-0.55-0.14H60.82z M61.9,121.38
		c0.27,0,0.47-0.05,0.6-0.14c0.13-0.09,0.2-0.23,0.2-0.43c0-0.38-0.27-0.57-0.8-0.57h-1.08v1.13H61.9z"/>
	<path class="st0" d="M63.84,118.17h0.45v3.6h-0.45V118.17z"/>
	<path class="st0" d="M66.22,121.8c-0.25,0-0.47-0.06-0.67-0.17c-0.2-0.11-0.35-0.27-0.46-0.47c-0.11-0.2-0.16-0.43-0.16-0.68
		c0-0.25,0.05-0.48,0.16-0.67c0.11-0.2,0.27-0.36,0.46-0.47c0.2-0.11,0.42-0.17,0.67-0.17s0.47,0.06,0.66,0.17
		c0.2,0.11,0.35,0.27,0.46,0.47c0.11,0.2,0.17,0.42,0.17,0.67c0,0.25-0.06,0.48-0.17,0.68c-0.11,0.2-0.26,0.35-0.46,0.47
		C66.69,121.75,66.47,121.8,66.22,121.8z M66.22,121.4c0.16,0,0.3-0.04,0.43-0.11c0.13-0.08,0.23-0.18,0.3-0.32
		c0.07-0.14,0.11-0.3,0.11-0.48c0-0.18-0.04-0.34-0.11-0.47c-0.07-0.14-0.17-0.25-0.3-0.32c-0.13-0.07-0.27-0.11-0.43-0.11
		s-0.3,0.04-0.43,0.11c-0.12,0.07-0.23,0.18-0.3,0.32c-0.07,0.14-0.11,0.29-0.11,0.47c0,0.18,0.04,0.34,0.11,0.48
		c0.08,0.14,0.18,0.24,0.3,0.32C65.91,121.36,66.06,121.4,66.22,121.4z"/>
	<path class="st0" d="M69.22,121.8c-0.25,0-0.48-0.06-0.68-0.17c-0.2-0.11-0.35-0.27-0.46-0.47c-0.11-0.2-0.17-0.43-0.17-0.68
		c0-0.25,0.06-0.48,0.17-0.67c0.11-0.2,0.27-0.36,0.46-0.47c0.2-0.11,0.43-0.17,0.68-0.17c0.23,0,0.43,0.05,0.6,0.14
		c0.18,0.09,0.32,0.23,0.41,0.41l-0.34,0.23c-0.08-0.12-0.18-0.22-0.29-0.28c-0.12-0.06-0.24-0.09-0.38-0.09
		c-0.16,0-0.31,0.04-0.44,0.11c-0.13,0.07-0.23,0.18-0.31,0.32c-0.07,0.14-0.11,0.29-0.11,0.47c0,0.18,0.04,0.34,0.11,0.48
		c0.08,0.14,0.18,0.24,0.31,0.32c0.13,0.07,0.28,0.11,0.44,0.11c0.14,0,0.27-0.03,0.38-0.09c0.12-0.06,0.21-0.15,0.29-0.28
		l0.34,0.22c-0.1,0.18-0.23,0.32-0.41,0.41C69.64,121.76,69.44,121.8,69.22,121.8z"/>
	<path class="st0" d="M71.75,120.58l-0.52,0.5v0.7h-0.45v-3.6h0.45v2.31l1.36-1.28h0.54l-1.05,1.06l1.15,1.51h-0.55L71.75,120.58z"
		/>
	<path class="st0" d="M74.65,121.8c-0.25,0-0.48-0.06-0.68-0.17c-0.2-0.11-0.35-0.27-0.46-0.47c-0.11-0.2-0.17-0.43-0.17-0.68
		c0-0.25,0.06-0.48,0.17-0.67c0.11-0.2,0.27-0.36,0.46-0.47c0.2-0.11,0.43-0.17,0.68-0.17c0.23,0,0.43,0.05,0.6,0.14
		c0.18,0.09,0.32,0.23,0.41,0.41l-0.34,0.23c-0.08-0.12-0.18-0.22-0.29-0.28c-0.12-0.06-0.24-0.09-0.38-0.09
		c-0.16,0-0.31,0.04-0.44,0.11c-0.13,0.07-0.23,0.18-0.31,0.32c-0.07,0.14-0.11,0.29-0.11,0.47c0,0.18,0.04,0.34,0.11,0.48
		c0.08,0.14,0.18,0.24,0.31,0.32c0.13,0.07,0.28,0.11,0.44,0.11c0.14,0,0.27-0.03,0.38-0.09c0.12-0.06,0.21-0.15,0.29-0.28
		l0.34,0.22c-0.1,0.18-0.23,0.32-0.41,0.41C75.08,121.76,74.88,121.8,74.65,121.8z"/>
	<path class="st0" d="M77.55,119.18c0.32,0,0.57,0.1,0.75,0.29c0.19,0.19,0.28,0.46,0.28,0.83v1.48h-0.45v-1.43
		c0-0.25-0.06-0.44-0.17-0.56c-0.12-0.13-0.28-0.19-0.5-0.19c-0.24,0-0.44,0.07-0.58,0.22c-0.14,0.15-0.21,0.36-0.21,0.63v1.33
		h-0.45v-3.6h0.45v1.39c0.09-0.12,0.22-0.22,0.37-0.29C77.19,119.21,77.36,119.18,77.55,119.18z"/>
	<path class="st0" d="M80.32,119.18c0.34,0,0.61,0.09,0.79,0.26c0.18,0.17,0.28,0.44,0.28,0.78v1.55h-0.43v-0.34
		c-0.08,0.12-0.18,0.21-0.32,0.28c-0.14,0.06-0.3,0.09-0.49,0.09c-0.28,0-0.5-0.07-0.67-0.21c-0.17-0.14-0.25-0.32-0.25-0.55
		s0.08-0.41,0.24-0.54c0.16-0.14,0.41-0.21,0.76-0.21h0.71v-0.09c0-0.2-0.06-0.35-0.17-0.46c-0.11-0.11-0.28-0.16-0.5-0.16
		c-0.15,0-0.29,0.03-0.43,0.08c-0.14,0.05-0.26,0.11-0.36,0.2l-0.19-0.35c0.13-0.11,0.28-0.19,0.46-0.24
		C79.93,119.21,80.12,119.18,80.32,119.18z M80.22,121.45c0.17,0,0.32-0.04,0.45-0.12c0.12-0.08,0.22-0.19,0.27-0.34v-0.36h-0.69
		c-0.38,0-0.57,0.13-0.57,0.4c0,0.13,0.05,0.23,0.15,0.31C79.91,121.41,80.05,121.45,80.22,121.45z"/>
	<path class="st0" d="M82.22,119.2h0.45v2.57h-0.45V119.2z M82.45,118.71c-0.09,0-0.16-0.03-0.22-0.09
		c-0.06-0.06-0.08-0.13-0.08-0.21c0-0.08,0.03-0.16,0.08-0.21c0.06-0.06,0.13-0.09,0.22-0.09s0.16,0.03,0.22,0.09
		c0.06,0.06,0.09,0.12,0.09,0.21c0,0.09-0.03,0.16-0.09,0.22C82.61,118.68,82.53,118.71,82.45,118.71z"/>
	<path class="st0" d="M84.86,119.18c0.32,0,0.57,0.1,0.75,0.29c0.19,0.19,0.28,0.46,0.28,0.83v1.48h-0.45v-1.43
		c0-0.25-0.06-0.44-0.17-0.56s-0.28-0.19-0.5-0.19c-0.24,0-0.44,0.07-0.58,0.22c-0.14,0.15-0.21,0.36-0.21,0.63v1.33h-0.45v-2.57
		h0.43v0.39c0.09-0.13,0.21-0.23,0.37-0.31C84.49,119.21,84.66,119.18,84.86,119.18z"/>
	<path class="st0" d="M89.33,118.38c0.43,0,0.76,0.11,1,0.32c0.24,0.21,0.37,0.5,0.37,0.87c0,0.37-0.12,0.66-0.37,0.87
		c-0.24,0.21-0.58,0.32-1,0.32h-0.81v1.03h-0.47v-3.4H89.33z M89.32,120.32c0.3,0,0.52-0.06,0.68-0.19
		c0.16-0.13,0.23-0.32,0.23-0.57c0-0.25-0.08-0.43-0.23-0.56c-0.16-0.13-0.38-0.2-0.68-0.2h-0.8v1.52H89.32z"/>
	<path class="st0" d="M91.37,118.17h0.45v3.6h-0.45V118.17z"/>
	<path class="st0" d="M93.59,119.18c0.34,0,0.61,0.09,0.79,0.26c0.18,0.17,0.28,0.44,0.28,0.78v1.55h-0.43v-0.34
		c-0.08,0.12-0.18,0.21-0.32,0.28c-0.14,0.06-0.3,0.09-0.49,0.09c-0.28,0-0.5-0.07-0.67-0.21c-0.17-0.14-0.25-0.32-0.25-0.55
		s0.08-0.41,0.24-0.54c0.16-0.14,0.41-0.21,0.76-0.21h0.71v-0.09c0-0.2-0.06-0.35-0.17-0.46c-0.11-0.11-0.28-0.16-0.5-0.16
		c-0.15,0-0.29,0.03-0.43,0.08c-0.14,0.05-0.26,0.11-0.36,0.2l-0.19-0.35c0.13-0.11,0.28-0.19,0.46-0.24
		C93.2,119.21,93.39,119.18,93.59,119.18z M93.49,121.45c0.17,0,0.32-0.04,0.45-0.12c0.13-0.08,0.22-0.19,0.27-0.34v-0.36h-0.69
		c-0.38,0-0.57,0.13-0.57,0.4c0,0.13,0.05,0.23,0.15,0.31C93.18,121.41,93.32,121.45,93.49,121.45z"/>
	<path class="st0" d="M96.89,121.63c-0.07,0.06-0.15,0.1-0.24,0.14c-0.1,0.03-0.2,0.04-0.3,0.04c-0.25,0-0.44-0.07-0.58-0.21
		c-0.14-0.14-0.21-0.34-0.21-0.6v-1.41h-0.42v-0.38h0.42v-0.56h0.45v0.56h0.71v0.38h-0.71v1.39c0,0.14,0.03,0.25,0.1,0.32
		c0.07,0.07,0.17,0.11,0.29,0.11c0.14,0,0.26-0.04,0.35-0.12L96.89,121.63z"/>
	<path class="st0" d="M98.35,118.53c-0.27,0-0.4,0.15-0.4,0.45v0.22h0.72v0.38h-0.71v2.19H97.5v-2.19h-0.42v-0.38h0.42v-0.23
		c0-0.26,0.07-0.46,0.22-0.61c0.14-0.15,0.35-0.22,0.61-0.22c0.1,0,0.19,0.01,0.28,0.04c0.09,0.03,0.16,0.06,0.23,0.11l-0.14,0.35
		C98.59,118.57,98.47,118.53,98.35,118.53z"/>
	<path class="st0" d="M100.12,121.8c-0.25,0-0.47-0.06-0.67-0.17c-0.2-0.11-0.35-0.27-0.46-0.47c-0.11-0.2-0.16-0.43-0.16-0.68
		c0-0.25,0.05-0.48,0.16-0.67c0.11-0.2,0.27-0.36,0.46-0.47c0.2-0.11,0.42-0.17,0.67-0.17c0.25,0,0.47,0.06,0.66,0.17
		c0.2,0.11,0.35,0.27,0.46,0.47c0.11,0.2,0.17,0.42,0.17,0.67c0,0.25-0.06,0.48-0.17,0.68c-0.11,0.2-0.26,0.35-0.46,0.47
		C100.59,121.75,100.37,121.8,100.12,121.8z M100.12,121.4c0.16,0,0.3-0.04,0.43-0.11c0.13-0.08,0.23-0.18,0.3-0.32
		c0.07-0.14,0.11-0.3,0.11-0.48c0-0.18-0.04-0.34-0.11-0.47c-0.07-0.14-0.17-0.25-0.3-0.32c-0.13-0.07-0.27-0.11-0.43-0.11
		s-0.3,0.04-0.43,0.11c-0.13,0.07-0.23,0.18-0.3,0.32c-0.07,0.14-0.11,0.29-0.11,0.47c0,0.18,0.04,0.34,0.11,0.48
		c0.08,0.14,0.18,0.24,0.3,0.32C99.82,121.36,99.96,121.4,100.12,121.4z"/>
	<path class="st0" d="M102.47,119.63c0.08-0.15,0.19-0.26,0.35-0.34c0.15-0.08,0.34-0.12,0.56-0.12v0.45c-0.03,0-0.06,0-0.1,0
		c-0.24,0-0.44,0.08-0.58,0.23c-0.14,0.15-0.21,0.36-0.21,0.64v1.28h-0.45v-2.57h0.43V119.63z"/>
	<path class="st0" d="M107.04,119.18c0.31,0,0.56,0.09,0.74,0.28c0.18,0.19,0.28,0.47,0.28,0.84v1.48h-0.45v-1.43
		c0-0.25-0.06-0.44-0.17-0.56c-0.11-0.13-0.27-0.19-0.47-0.19c-0.23,0-0.41,0.07-0.54,0.22c-0.13,0.15-0.2,0.36-0.2,0.63v1.33h-0.45
		v-1.43c0-0.25-0.06-0.44-0.17-0.56c-0.11-0.13-0.27-0.19-0.47-0.19c-0.23,0-0.41,0.07-0.54,0.22c-0.13,0.15-0.2,0.36-0.2,0.63v1.33
		h-0.45v-2.57h0.43v0.38c0.09-0.13,0.21-0.23,0.36-0.3c0.15-0.07,0.31-0.11,0.5-0.11c0.19,0,0.37,0.04,0.52,0.12
		c0.15,0.08,0.27,0.2,0.35,0.35c0.09-0.15,0.22-0.27,0.39-0.35C106.64,119.22,106.83,119.18,107.04,119.18z"/>
</g>
<g>
	<g>
		<polygon class="st2" points="21.59,5.93 10.22,12.33 10.22,25.41 11.93,26.38 23.32,19.97 23.32,15.95 21.56,14.99 19.86,15.95 
			19.86,17.97 12.54,22.02 12.54,21.51 13.63,20.9 13.63,14.32 20.82,10.25 20.82,10.77 19.86,11.31 19.86,12.1 21.62,13.11 
			23.32,12.15 23.32,6.91 23.32,6.91 		"/>
		<polygon class="st3" points="14.74,8.88 18.2,6.94 18.2,3.94 16.48,2.96 5.1,9.36 5.1,22.44 6.82,23.42 8.51,22.46 8.51,11.35 
			14.74,7.83 		"/>
		<polygon class="st4" points="9.64,5.91 13.1,3.97 13.1,0.98 13.1,0.98 11.37,0 0,6.4 0,19.48 1.71,20.45 3.41,19.49 3.41,8.39 
			9.64,4.87 		"/>
	</g>
	<g>
		<path class="st0" d="M32.61,16.01c0.52,0,0.98-0.13,1.36-0.39c0.38-0.26,0.66-0.64,0.82-1.14l1.71,0.27
			c-0.23,0.89-0.69,1.59-1.4,2.1c-0.7,0.51-1.53,0.76-2.49,0.76c-0.58,0-1.11-0.1-1.61-0.29c-0.5-0.19-0.93-0.46-1.3-0.82
			c-0.37-0.35-0.66-0.79-0.86-1.32c-0.21-0.53-0.31-1.11-0.31-1.74c0-0.64,0.1-1.22,0.31-1.74c0.21-0.52,0.5-0.96,0.86-1.32
			c0.37-0.35,0.8-0.63,1.3-0.82c0.5-0.19,1.04-0.29,1.61-0.29c0.95,0,1.78,0.25,2.49,0.76c0.7,0.51,1.17,1.21,1.4,2.11l-1.71,0.26
			c-0.16-0.5-0.43-0.88-0.82-1.14c-0.38-0.26-0.84-0.39-1.36-0.39c-0.7,0-1.26,0.23-1.7,0.68c-0.44,0.45-0.66,1.08-0.66,1.89
			c0,0.81,0.22,1.44,0.66,1.9C31.35,15.78,31.91,16.01,32.61,16.01z"/>
		<path class="st0" d="M44.94,17.51h-1.81l-1.57-2.68h-1.88v2.68h-1.74V9.36h4.15c0.7,0,1.29,0.26,1.78,0.78
			c0.49,0.52,0.73,1.17,0.73,1.96c0,0.57-0.13,1.08-0.39,1.51c-0.26,0.44-0.61,0.76-1.04,0.97L44.94,17.51z M39.68,10.88v2.51h2.07
			c0.32,0,0.58-0.11,0.8-0.34c0.21-0.23,0.32-0.53,0.32-0.92c0-0.38-0.11-0.69-0.32-0.91c-0.21-0.23-0.48-0.34-0.8-0.34H39.68z"/>
		<path class="st0" d="M50.67,9.36h1.77l-2.72,5.03v3.12h-1.73v-3.12l-2.76-5.03H47l1.84,3.38L50.67,9.36z"/>
		<path class="st0" d="M57.75,9.36c0.7,0,1.29,0.26,1.78,0.78c0.49,0.52,0.73,1.17,0.73,1.96c0,0.8-0.24,1.45-0.73,1.96
			c-0.49,0.51-1.08,0.77-1.78,0.77h-2.41v2.68H53.6V9.36H57.75z M57.42,13.39c0.32,0,0.58-0.11,0.8-0.34
			c0.21-0.23,0.32-0.53,0.32-0.92c0-0.38-0.11-0.69-0.32-0.91c-0.21-0.23-0.48-0.34-0.8-0.34h-2.07v2.51H57.42z"/>
		<path class="st0" d="M68,9.36v1.52h-2.41v6.63h-1.73v-6.63h-2.42V9.36H68z"/>
		<path class="st0" d="M74.63,17.31c-0.5,0.19-1.03,0.29-1.61,0.29c-0.57,0-1.11-0.1-1.61-0.29c-0.5-0.19-0.93-0.46-1.3-0.82
			c-0.37-0.35-0.66-0.79-0.86-1.32c-0.21-0.53-0.31-1.11-0.31-1.74c0-0.64,0.1-1.22,0.31-1.74c0.21-0.52,0.5-0.96,0.86-1.32
			c0.37-0.35,0.8-0.63,1.3-0.82c0.5-0.19,1.03-0.29,1.61-0.29c0.57,0,1.11,0.1,1.61,0.29c0.5,0.19,0.93,0.46,1.3,0.82
			c0.37,0.35,0.66,0.79,0.87,1.32c0.21,0.52,0.32,1.11,0.32,1.74c0,0.64-0.11,1.22-0.32,1.74c-0.21,0.53-0.5,0.97-0.87,1.32
			C75.55,16.85,75.12,17.12,74.63,17.31z M71.32,15.33c0.44,0.45,1,0.68,1.7,0.68c0.7,0,1.27-0.23,1.7-0.68
			c0.43-0.45,0.65-1.08,0.65-1.9c0-0.81-0.22-1.44-0.65-1.89c-0.43-0.45-1-0.68-1.7-0.68c-0.7,0-1.27,0.23-1.7,0.68
			c-0.44,0.45-0.65,1.08-0.65,1.89C70.67,14.25,70.88,14.88,71.32,15.33z"/>
		<path class="st0" d="M84.06,16.01c0.52,0,0.98-0.13,1.36-0.39c0.38-0.26,0.66-0.64,0.82-1.14l1.71,0.27
			c-0.23,0.89-0.69,1.59-1.4,2.1c-0.7,0.51-1.53,0.76-2.49,0.76c-0.58,0-1.11-0.1-1.61-0.29c-0.5-0.19-0.93-0.46-1.3-0.82
			c-0.37-0.35-0.66-0.79-0.86-1.32c-0.21-0.53-0.31-1.11-0.31-1.74c0-0.64,0.1-1.22,0.31-1.74c0.21-0.52,0.5-0.96,0.86-1.32
			c0.37-0.35,0.8-0.63,1.3-0.82c0.5-0.19,1.04-0.29,1.61-0.29c0.95,0,1.78,0.25,2.49,0.76c0.7,0.51,1.17,1.21,1.4,2.11l-1.71,0.26
			c-0.16-0.5-0.43-0.88-0.82-1.14c-0.38-0.26-0.84-0.39-1.36-0.39c-0.7,0-1.26,0.23-1.7,0.68c-0.44,0.45-0.66,1.08-0.66,1.89
			c0,0.81,0.22,1.44,0.66,1.9C82.79,15.78,83.36,16.01,84.06,16.01z"/>
		<path class="st0" d="M91.12,9.36v8.15h-1.74V9.36H91.12z"/>
		<path class="st0" d="M99.01,9.36v1.52H96.6v6.63h-1.73v-6.63h-2.42V9.36H99.01z"/>
		<path class="st0" d="M105.62,9.36h1.77l-2.72,5.03v3.12h-1.73v-3.12l-2.76-5.03h1.77l1.84,3.38L105.62,9.36z"/>
	</g>
	<g>
		<path class="st0" d="M46.49,23.85c0.22,0,0.42-0.06,0.58-0.17c0.16-0.11,0.28-0.28,0.35-0.49l0.73,0.11
			c-0.1,0.38-0.3,0.68-0.6,0.9s-0.66,0.33-1.07,0.33c-0.25,0-0.48-0.04-0.69-0.12s-0.4-0.2-0.56-0.35s-0.28-0.34-0.37-0.56
			c-0.09-0.23-0.13-0.47-0.13-0.75s0.04-0.52,0.13-0.75c0.09-0.22,0.21-0.41,0.37-0.56s0.34-0.27,0.56-0.35s0.44-0.12,0.69-0.12
			c0.41,0,0.76,0.11,1.07,0.33c0.3,0.22,0.5,0.52,0.6,0.9l-0.73,0.11c-0.07-0.21-0.18-0.38-0.35-0.49
			c-0.16-0.11-0.36-0.17-0.58-0.17c-0.3,0-0.54,0.1-0.73,0.29c-0.19,0.19-0.28,0.46-0.28,0.81s0.09,0.62,0.28,0.81
			S46.19,23.85,46.49,23.85z"/>
		<path class="st0" d="M54.62,24.41c-0.21,0.08-0.44,0.12-0.69,0.12c-0.25,0-0.48-0.04-0.69-0.12c-0.21-0.08-0.4-0.2-0.56-0.35
			s-0.28-0.34-0.37-0.56s-0.13-0.47-0.13-0.75s0.04-0.52,0.13-0.75c0.09-0.22,0.21-0.41,0.37-0.56s0.34-0.27,0.56-0.35
			c0.21-0.08,0.44-0.12,0.69-0.12c0.25,0,0.48,0.04,0.69,0.12s0.4,0.2,0.56,0.35s0.28,0.34,0.37,0.56c0.09,0.22,0.14,0.47,0.14,0.75
			s-0.05,0.52-0.14,0.75c-0.09,0.23-0.21,0.41-0.37,0.56S54.84,24.33,54.62,24.41z M53.21,23.56c0.19,0.19,0.43,0.29,0.73,0.29
			s0.54-0.1,0.73-0.29c0.19-0.19,0.28-0.46,0.28-0.81s-0.09-0.62-0.28-0.81c-0.19-0.19-0.43-0.29-0.73-0.29s-0.54,0.1-0.73,0.29
			c-0.19,0.19-0.28,0.46-0.28,0.81S53.02,23.37,53.21,23.56z"/>
		<path class="st0" d="M62.28,21h0.74v3.49H62.2l-1.57-2.32v2.32h-0.75V21h0.82l1.58,2.32V21z"/>
		<path class="st0" d="M69.74,21h0.74v3.49h-0.82l-1.57-2.32v2.32h-0.75V21h0.82l1.58,2.32V21z"/>
		<path class="st0" d="M77.21,21.65h-1.66v0.79h1.36v0.61h-1.36v0.79h1.66v0.65h-2.4V21h2.4V21.65z"/>
		<path class="st0" d="M84.32,21l-1.12,1.75l1.12,1.75h-0.8l-0.72-1.12l-0.72,1.12h-0.81l1.13-1.75L81.27,21h0.81l0.72,1.12
			L83.51,21H84.32z"/>
		<path class="st0" d="M91.18,21v0.65h-1.03v2.84H89.4v-2.84h-1.04V21H91.18z"/>
	</g>
</g>
<g>
	<g>
		<path id="Reg_3_" class="st0" d="M106.59-25.51v-0.28h0.19c0.1,0,0.24,0.01,0.24,0.13c0,0.13-0.07,0.15-0.19,0.15H106.59
			 M106.59-25.31h0.13l0.29,0.5h0.32l-0.32-0.52c0.17-0.01,0.3-0.09,0.3-0.31c0-0.27-0.19-0.36-0.52-0.36h-0.47v1.18h0.27V-25.31
			 M107.96-25.4c0-0.69-0.56-1.1-1.18-1.1c-0.62,0-1.18,0.4-1.18,1.1c0,0.69,0.56,1.1,1.18,1.1
			C107.41-24.31,107.96-24.71,107.96-25.4 M107.62-25.4c0,0.51-0.38,0.84-0.84,0.84v0c-0.47,0-0.84-0.34-0.84-0.84
			c0-0.5,0.38-0.84,0.84-0.84C107.24-26.25,107.62-25.91,107.62-25.4z"/>
		<path id="NVIDIA_2_" class="st0" d="M64.78-37.14l0,12.45h3.63v-12.45H64.78z M36.22-37.16v12.47h3.66v-9.47l2.84,0
			c0.94,0,1.61,0.23,2.06,0.69c0.57,0.59,0.81,1.55,0.81,3.3v5.47h3.55v-6.89c0-4.92-3.24-5.58-6.4-5.58H36.22z M70.62-37.14v12.45
			h5.89c3.14,0,4.16-0.51,5.27-1.64c0.78-0.8,1.29-2.54,1.29-4.45c0-1.75-0.43-3.31-1.18-4.28c-1.35-1.74-3.28-2.08-6.18-2.08H70.62
			z M74.22-34.43h1.56c2.26,0,3.73,0.98,3.73,3.54c0,2.56-1.46,3.54-3.73,3.54h-1.56V-34.43z M59.54-37.14l-3.03,9.87l-2.9-9.87
			l-3.92,0l4.15,12.45h5.23l4.18-12.45H59.54z M84.76-24.69h3.63v-12.45l-3.63,0L84.76-24.69z M94.94-37.14L89.87-24.7h3.58l0.8-2.2
			h6l0.76,2.2h3.89l-5.11-12.44L94.94-37.14z M97.29-34.87l2.2,5.83h-4.47L97.29-34.87z"/>
	</g>
	<path id="Eye_Mark_3_" class="st5" d="M12.15-34.91v-1.8c0.18-0.01,0.36-0.02,0.55-0.03c5.07-0.15,8.4,4.22,8.4,4.22
		s-3.6,4.84-7.45,4.84c-0.56,0-1.05-0.09-1.5-0.23v-5.45c1.98,0.23,2.37,1.08,3.56,2.99l2.64-2.16c0,0-1.93-2.45-5.18-2.45
		C12.82-34.97,12.48-34.95,12.15-34.91 M12.15-40.85v2.68c0.18-0.01,0.36-0.03,0.55-0.03c7.06-0.23,11.65,5.6,11.65,5.6
		s-5.28,6.22-10.78,6.22c-0.5,0-0.98-0.05-1.42-0.12v1.66c0.38,0.05,0.77,0.07,1.18,0.07c5.12,0,8.82-2.53,12.41-5.53
		c0.59,0.46,3.03,1.58,3.53,2.07c-3.41,2.76-11.35,4.99-15.86,4.99c-0.43,0-0.85-0.03-1.26-0.06v2.33h19.46v-19.89H12.15z
		 M12.15-27.91v1.42c-4.73-0.82-6.05-5.58-6.05-5.58s2.27-2.44,6.05-2.83v1.55c0,0,0,0-0.01,0c-1.98-0.23-3.53,1.56-3.53,1.56
		S9.48-28.78,12.15-27.91 M3.74-32.28c0,0,2.81-4.01,8.41-4.42v-1.45c-6.21,0.48-11.58,5.57-11.58,5.57s3.04,8.52,11.58,9.3v-1.55
		C5.89-25.6,3.74-32.28,3.74-32.28z"/>
</g>
</svg>
