<?xml version="1.0" encoding="utf-8"?>
<!-- Generator: Adobe Illustrator 25.4.0, SVG Export Plug-In . SVG Version: 6.00 Build 0)  -->
<svg version="1.1" id="Layer_1" xmlns="http://www.w3.org/2000/svg" xmlns:xlink="http://www.w3.org/1999/xlink" x="0px" y="0px"
	 viewBox="0 0 107.39 29.83" style="enable-background:new 0 0 107.39 29.83;" xml:space="preserve">
<style type="text/css">
	.st0{fill:#FFFFFF;}
	.st1{fill-rule:evenodd;clip-rule:evenodd;fill:#1C213F;}
	.st2{fill:#33CCFF;}
	.st3{fill:#3399FF;}
	.st4{fill:#5379FA;}
	.st5{fill:#80BC00;}
</style>
<g>
	<path class="st0" d="M0,0h29.83v29.83H0V0z"/>
	<path class="st1" d="M22.18,21.84c-1.83,1.92-4.41,3.11-7.26,3.11c-0.2,0-0.4-0.01-0.6-0.02l4.33-7.5
		c0.19-0.28,0.35-0.58,0.47-0.89L22.18,21.84z M23.32,20.4c1.03-1.58,1.63-3.46,1.63-5.49c0-0.99-0.14-1.95-0.41-2.85h-6.08
		c0.06,0.07,0.11,0.15,0.16,0.22c0.13,0.19,0.25,0.38,0.34,0.58L23.32,20.4z M14.92,10.36L14.92,10.36l8.94,0
		c-1.66-3.25-5.04-5.48-8.94-5.48c-5.54,0-10.03,4.49-10.03,10.03c0,4.71,3.25,8.66,7.62,9.74l3.07-5.31
		c-1.63,0.24-3.34-0.44-4.35-1.88c-1.43-2.04-0.93-4.86,1.11-6.29C13.12,10.63,14.02,10.36,14.92,10.36z"/>
	<path class="st0" d="M42.79,9.82c-0.88,0-1.67-0.19-2.37-0.56c-0.7-0.37-1.24-0.88-1.65-1.54c-0.39-0.66-0.59-1.39-0.59-2.22
		c0-0.82,0.2-1.56,0.59-2.22c0.4-0.66,0.95-1.17,1.65-1.54c0.7-0.37,1.49-0.56,2.37-0.56c0.88,0,1.66,0.19,2.36,0.56
		c0.7,0.37,1.25,0.88,1.65,1.54c0.4,0.66,0.6,1.39,0.6,2.22c0,0.82-0.2,1.56-0.6,2.22c-0.39,0.66-0.94,1.17-1.65,1.54
		C44.45,9.63,43.67,9.82,42.79,9.82z M42.79,7.87c0.42,0,0.8-0.1,1.14-0.3c0.34-0.2,0.61-0.47,0.81-0.83c0.2-0.36,0.3-0.78,0.3-1.24
		c0-0.47-0.1-0.88-0.3-1.23c-0.2-0.36-0.47-0.64-0.81-0.84c-0.34-0.2-0.72-0.3-1.14-0.3s-0.8,0.1-1.14,0.3
		c-0.34,0.2-0.61,0.48-0.81,0.84c-0.2,0.36-0.3,0.77-0.3,1.23c0,0.47,0.1,0.88,0.3,1.24c0.2,0.36,0.47,0.63,0.81,0.83
		C41.99,7.78,42.37,7.87,42.79,7.87z"/>
	<path class="st0" d="M56.11,9.65l-0.02-4.39l-2.13,3.58h-1.04L50.8,5.37v4.28h-2.17V1.36h1.93l2.91,4.79l2.84-4.79h1.93l0.02,8.29
		H56.11z"/>
	<path class="st0" d="M42.72,12.75c0.75,0,1.4,0.13,1.95,0.38c0.55,0.24,0.98,0.6,1.28,1.07c0.3,0.46,0.45,1,0.45,1.62
		c0,0.62-0.15,1.16-0.45,1.62c-0.3,0.46-0.73,0.81-1.28,1.07c-0.55,0.24-1.2,0.37-1.95,0.37h-1.45v2.17h-2.35v-8.29H42.72z
		 M42.58,17.03c0.48,0,0.85-0.1,1.09-0.31c0.24-0.21,0.37-0.51,0.37-0.9c0-0.39-0.12-0.69-0.37-0.9c-0.24-0.21-0.61-0.32-1.09-0.32
		h-1.3v2.43H42.58z"/>
	<path class="st0" d="M47.55,12.75h2.35v6.43h3.96v1.86h-6.3V12.75z"/>
	<path class="st0" d="M60.43,19.43h-3.51l-0.65,1.61h-2.39l3.66-8.29h2.31l3.67,8.29h-2.44L60.43,19.43z M59.74,17.7l-1.07-2.65
		l-1.07,2.65H59.74z"/>
	<path class="st0" d="M65.54,14.61h-2.55v-1.86h7.43v1.86h-2.54v6.43h-2.35V14.61z"/>
	<path class="st0" d="M73.63,14.56v1.82h3.66v1.81h-3.66v2.84h-2.35v-8.29h6.5v1.81H73.63z"/>
	<path class="st0" d="M83,21.21c-0.88,0-1.67-0.19-2.37-0.56c-0.69-0.37-1.24-0.88-1.65-1.54c-0.39-0.66-0.59-1.39-0.59-2.22
		c0-0.82,0.2-1.56,0.59-2.22c0.4-0.66,0.95-1.17,1.65-1.54c0.7-0.37,1.49-0.56,2.37-0.56c0.88,0,1.66,0.19,2.36,0.56
		c0.7,0.37,1.25,0.88,1.65,1.54c0.4,0.66,0.6,1.39,0.6,2.22c0,0.82-0.2,1.56-0.6,2.22c-0.39,0.66-0.94,1.17-1.65,1.54
		C84.66,21.02,83.88,21.21,83,21.21z M83,19.26c0.42,0,0.8-0.1,1.14-0.3c0.34-0.2,0.61-0.47,0.81-0.83c0.2-0.36,0.3-0.78,0.3-1.24
		c0-0.47-0.1-0.88-0.3-1.23c-0.2-0.36-0.47-0.64-0.81-0.84c-0.34-0.2-0.72-0.3-1.14-0.3c-0.42,0-0.8,0.1-1.14,0.3
		c-0.34,0.2-0.61,0.48-0.81,0.84c-0.2,0.36-0.3,0.77-0.3,1.23c0,0.47,0.1,0.88,0.3,1.24c0.2,0.36,0.47,0.63,0.81,0.83
		C82.2,19.17,82.58,19.26,83,19.26z"/>
	<path class="st0" d="M92.46,18.84h-1.28v2.2h-2.35v-8.29h3.79c0.75,0,1.4,0.13,1.95,0.38c0.55,0.24,0.98,0.6,1.28,1.07
		c0.3,0.46,0.45,1,0.45,1.62c0,0.6-0.14,1.13-0.43,1.58c-0.28,0.44-0.68,0.79-1.2,1.04l1.79,2.61h-2.51L92.46,18.84z M93.94,15.82
		c0-0.39-0.12-0.69-0.37-0.9c-0.24-0.21-0.61-0.32-1.09-0.32h-1.3v2.43h1.3c0.48,0,0.84-0.1,1.09-0.31
		C93.82,16.5,93.94,16.2,93.94,15.82z"/>
	<path class="st0" d="M105.09,21.04l-0.02-4.39l-2.13,3.58h-1.04l-2.12-3.46v4.28h-2.17v-8.29h1.93l2.91,4.79l2.84-4.79h1.93
		l0.02,8.29H105.09z"/>
	<path class="st0" d="M38.78,24.43h0.47v2.98h1.78v0.42h-2.25V24.43z"/>
	<path class="st0" d="M41.5,25.26h0.45v2.57H41.5V25.26z M41.73,24.76c-0.09,0-0.16-0.03-0.22-0.09c-0.06-0.06-0.08-0.13-0.08-0.21
		c0-0.08,0.03-0.16,0.08-0.21c0.06-0.06,0.13-0.09,0.22-0.09c0.09,0,0.16,0.03,0.22,0.09c0.06,0.06,0.09,0.12,0.09,0.21
		c0,0.09-0.03,0.16-0.09,0.22C41.89,24.73,41.82,24.76,41.73,24.76z"/>
	<path class="st0" d="M43.72,24.58c-0.27,0-0.4,0.15-0.4,0.45v0.22h0.72v0.38h-0.71v2.19h-0.45v-2.19h-0.42v-0.38h0.42v-0.23
		c0-0.26,0.07-0.46,0.22-0.61c0.14-0.15,0.35-0.22,0.61-0.22c0.1,0,0.19,0.01,0.28,0.04c0.09,0.03,0.16,0.06,0.23,0.11l-0.14,0.35
		C43.97,24.62,43.85,24.58,43.72,24.58z"/>
	<path class="st0" d="M46.68,26.56c0,0.04,0,0.08-0.01,0.14h-2.02c0.03,0.23,0.12,0.41,0.29,0.55c0.17,0.14,0.37,0.2,0.62,0.2
		c0.3,0,0.54-0.1,0.72-0.31l0.25,0.3c-0.11,0.14-0.25,0.24-0.42,0.31c-0.17,0.07-0.35,0.11-0.56,0.11c-0.26,0-0.5-0.06-0.7-0.17
		c-0.2-0.11-0.36-0.27-0.47-0.47c-0.11-0.2-0.16-0.43-0.16-0.68c0-0.25,0.05-0.47,0.16-0.67c0.11-0.2,0.26-0.36,0.45-0.47
		c0.19-0.11,0.41-0.17,0.64-0.17c0.24,0,0.45,0.06,0.63,0.17c0.19,0.11,0.33,0.27,0.44,0.47C46.63,26.07,46.68,26.3,46.68,26.56z
		 M45.45,25.63c-0.22,0-0.4,0.07-0.54,0.2c-0.14,0.14-0.23,0.31-0.25,0.53h1.6c-0.03-0.22-0.11-0.39-0.26-0.53
		C45.85,25.7,45.67,25.63,45.45,25.63z"/>
	<path class="st0" d="M48.02,27.86c-0.2,0-0.4-0.03-0.59-0.08c-0.19-0.06-0.34-0.13-0.44-0.22l0.19-0.37
		c0.11,0.08,0.24,0.15,0.4,0.19c0.16,0.05,0.31,0.07,0.47,0.07c0.39,0,0.59-0.12,0.59-0.35c0-0.08-0.03-0.14-0.08-0.18
		c-0.05-0.05-0.12-0.08-0.2-0.1c-0.08-0.02-0.19-0.05-0.34-0.07c-0.2-0.03-0.36-0.07-0.49-0.11c-0.12-0.04-0.23-0.11-0.32-0.21
		c-0.09-0.1-0.14-0.24-0.14-0.42c0-0.23,0.09-0.42,0.28-0.56c0.19-0.14,0.44-0.21,0.76-0.21c0.17,0,0.33,0.02,0.5,0.06
		s0.3,0.1,0.41,0.17l-0.19,0.37c-0.2-0.14-0.44-0.2-0.72-0.2c-0.19,0-0.34,0.03-0.44,0.1c-0.1,0.06-0.15,0.15-0.15,0.26
		c0,0.08,0.03,0.15,0.08,0.2c0.06,0.05,0.12,0.08,0.21,0.11c0.08,0.02,0.2,0.05,0.35,0.08c0.2,0.04,0.36,0.07,0.48,0.12
		c0.13,0.04,0.23,0.11,0.32,0.2c0.09,0.1,0.13,0.23,0.13,0.41c0,0.23-0.1,0.42-0.29,0.56C48.61,27.79,48.35,27.86,48.02,27.86z"/>
	<path class="st0" d="M51.06,27.68c-0.07,0.06-0.15,0.1-0.24,0.14c-0.1,0.03-0.2,0.04-0.3,0.04c-0.25,0-0.44-0.07-0.58-0.21
		c-0.14-0.14-0.21-0.34-0.21-0.6v-1.41H49.3v-0.38h0.42v-0.56h0.45v0.56h0.71v0.38h-0.71v1.39c0,0.14,0.03,0.25,0.1,0.32
		c0.07,0.07,0.17,0.11,0.29,0.11c0.14,0,0.26-0.04,0.35-0.12L51.06,27.68z"/>
	<path class="st0" d="M53.76,25.26l-1.21,2.83c-0.11,0.26-0.23,0.45-0.38,0.55c-0.14,0.11-0.31,0.16-0.51,0.16
		c-0.12,0-0.24-0.02-0.36-0.06c-0.11-0.04-0.21-0.1-0.28-0.17l0.19-0.35c0.13,0.13,0.28,0.19,0.45,0.19c0.11,0,0.2-0.03,0.27-0.09
		c0.08-0.06,0.14-0.16,0.2-0.31l0.08-0.18l-1.1-2.57h0.47l0.87,2.06l0.86-2.06H53.76z"/>
	<path class="st0" d="M54.18,24.23h0.45v3.6h-0.45V24.23z"/>
	<path class="st0" d="M57.74,26.56c0,0.04,0,0.08-0.01,0.14h-2.02c0.03,0.23,0.12,0.41,0.29,0.55c0.17,0.14,0.37,0.2,0.62,0.2
		c0.3,0,0.54-0.1,0.72-0.31l0.25,0.3c-0.11,0.14-0.25,0.24-0.42,0.31c-0.17,0.07-0.35,0.11-0.56,0.11c-0.26,0-0.5-0.06-0.7-0.17
		c-0.2-0.11-0.36-0.27-0.47-0.47c-0.11-0.2-0.16-0.43-0.16-0.68c0-0.25,0.05-0.47,0.16-0.67c0.11-0.2,0.26-0.36,0.45-0.47
		c0.19-0.11,0.41-0.17,0.64-0.17c0.24,0,0.45,0.06,0.63,0.17c0.19,0.11,0.33,0.27,0.44,0.47C57.68,26.07,57.74,26.3,57.74,26.56z
		 M56.51,25.63c-0.22,0-0.4,0.07-0.54,0.2c-0.14,0.14-0.23,0.31-0.25,0.53h1.6c-0.03-0.22-0.11-0.39-0.26-0.53
		C56.9,25.7,56.72,25.63,56.51,25.63z"/>
	<path class="st0" d="M61.9,26.07c0.19,0.06,0.34,0.16,0.45,0.3c0.11,0.14,0.16,0.32,0.16,0.54c0,0.29-0.11,0.52-0.32,0.68
		c-0.21,0.16-0.52,0.24-0.93,0.24h-1.57v-3.4h1.47c0.38,0,0.66,0.08,0.87,0.23c0.21,0.16,0.31,0.37,0.31,0.65
		c0,0.18-0.04,0.33-0.12,0.46C62.14,25.9,62.04,26,61.9,26.07z M60.16,24.83v1.09h0.96c0.24,0,0.43-0.05,0.55-0.14
		c0.13-0.09,0.2-0.23,0.2-0.41c0-0.18-0.07-0.31-0.2-0.4c-0.13-0.09-0.31-0.14-0.55-0.14H60.16z M61.24,27.44
		c0.27,0,0.47-0.05,0.6-0.14c0.13-0.09,0.2-0.23,0.2-0.43c0-0.38-0.27-0.57-0.8-0.57h-1.08v1.13H61.24z"/>
	<path class="st0" d="M63.18,24.23h0.45v3.6h-0.45V24.23z"/>
	<path class="st0" d="M65.55,27.86c-0.25,0-0.47-0.06-0.67-0.17c-0.2-0.11-0.35-0.27-0.46-0.47c-0.11-0.2-0.16-0.43-0.16-0.68
		c0-0.25,0.05-0.48,0.16-0.67c0.11-0.2,0.27-0.36,0.46-0.47c0.2-0.11,0.42-0.17,0.67-0.17s0.47,0.06,0.66,0.17
		c0.2,0.11,0.35,0.27,0.46,0.47c0.11,0.2,0.17,0.42,0.17,0.67c0,0.25-0.06,0.48-0.17,0.68c-0.11,0.2-0.26,0.35-0.46,0.47
		C66.02,27.8,65.8,27.86,65.55,27.86z M65.55,27.45c0.16,0,0.3-0.04,0.43-0.11c0.13-0.08,0.23-0.18,0.3-0.32
		c0.07-0.14,0.11-0.3,0.11-0.48c0-0.18-0.04-0.34-0.11-0.47c-0.07-0.14-0.17-0.25-0.3-0.32c-0.13-0.07-0.27-0.11-0.43-0.11
		s-0.3,0.04-0.43,0.11c-0.12,0.07-0.23,0.18-0.3,0.32c-0.07,0.14-0.11,0.29-0.11,0.47c0,0.18,0.04,0.34,0.11,0.48
		c0.08,0.14,0.18,0.24,0.3,0.32C65.25,27.42,65.39,27.45,65.55,27.45z"/>
	<path class="st0" d="M68.55,27.86c-0.25,0-0.48-0.06-0.68-0.17c-0.2-0.11-0.35-0.27-0.46-0.47c-0.11-0.2-0.17-0.43-0.17-0.68
		c0-0.25,0.06-0.48,0.17-0.67c0.11-0.2,0.27-0.36,0.46-0.47c0.2-0.11,0.43-0.17,0.68-0.17c0.23,0,0.43,0.05,0.6,0.14
		c0.18,0.09,0.32,0.23,0.41,0.41l-0.34,0.23c-0.08-0.12-0.18-0.22-0.29-0.28c-0.12-0.06-0.24-0.09-0.38-0.09
		c-0.16,0-0.31,0.04-0.44,0.11c-0.13,0.07-0.23,0.18-0.31,0.32c-0.07,0.14-0.11,0.29-0.11,0.47c0,0.18,0.04,0.34,0.11,0.48
		c0.08,0.14,0.18,0.24,0.31,0.32c0.13,0.07,0.28,0.11,0.44,0.11c0.14,0,0.27-0.03,0.38-0.09c0.12-0.06,0.21-0.15,0.29-0.28
		l0.34,0.22c-0.1,0.18-0.23,0.32-0.41,0.41C68.98,27.81,68.78,27.86,68.55,27.86z"/>
	<path class="st0" d="M71.08,26.63l-0.52,0.5v0.7h-0.45v-3.6h0.45v2.31l1.36-1.28h0.54l-1.05,1.06l1.15,1.51h-0.55L71.08,26.63z"/>
	<path class="st0" d="M73.99,27.86c-0.25,0-0.48-0.06-0.68-0.17c-0.2-0.11-0.35-0.27-0.46-0.47c-0.11-0.2-0.17-0.43-0.17-0.68
		c0-0.25,0.06-0.48,0.17-0.67c0.11-0.2,0.27-0.36,0.46-0.47c0.2-0.11,0.43-0.17,0.68-0.17c0.23,0,0.43,0.05,0.6,0.14
		c0.18,0.09,0.32,0.23,0.41,0.41l-0.34,0.23c-0.08-0.12-0.18-0.22-0.29-0.28s-0.24-0.09-0.38-0.09c-0.16,0-0.31,0.04-0.44,0.11
		c-0.13,0.07-0.23,0.18-0.31,0.32c-0.07,0.14-0.11,0.29-0.11,0.47c0,0.18,0.04,0.34,0.11,0.48c0.08,0.14,0.18,0.24,0.31,0.32
		c0.13,0.07,0.28,0.11,0.44,0.11c0.14,0,0.27-0.03,0.38-0.09c0.12-0.06,0.21-0.15,0.29-0.28L75,27.31c-0.1,0.18-0.23,0.32-0.41,0.41
		C74.41,27.81,74.21,27.86,73.99,27.86z"/>
	<path class="st0" d="M76.88,25.23c0.32,0,0.57,0.1,0.75,0.29c0.19,0.19,0.28,0.46,0.28,0.83v1.48h-0.45V26.4
		c0-0.25-0.06-0.44-0.17-0.56c-0.12-0.13-0.28-0.19-0.5-0.19c-0.24,0-0.44,0.07-0.58,0.22c-0.14,0.15-0.21,0.36-0.21,0.63v1.33
		h-0.45v-3.6h0.45v1.39c0.09-0.12,0.22-0.22,0.37-0.29C76.52,25.27,76.7,25.23,76.88,25.23z"/>
	<path class="st0" d="M79.66,25.23c0.34,0,0.61,0.09,0.79,0.26c0.18,0.17,0.28,0.44,0.28,0.78v1.55h-0.43v-0.34
		c-0.08,0.12-0.18,0.21-0.32,0.28c-0.14,0.06-0.3,0.09-0.49,0.09c-0.28,0-0.5-0.07-0.67-0.21c-0.17-0.14-0.25-0.32-0.25-0.55
		c0-0.23,0.08-0.41,0.24-0.54c0.16-0.14,0.41-0.21,0.76-0.21h0.71v-0.09c0-0.2-0.06-0.35-0.17-0.46c-0.11-0.11-0.28-0.16-0.5-0.16
		c-0.15,0-0.29,0.03-0.43,0.08c-0.14,0.05-0.26,0.11-0.36,0.2l-0.19-0.35c0.13-0.11,0.28-0.19,0.46-0.24
		C79.27,25.26,79.46,25.23,79.66,25.23z M79.55,27.5c0.17,0,0.32-0.04,0.45-0.12c0.12-0.08,0.22-0.19,0.27-0.34v-0.36h-0.69
		c-0.38,0-0.57,0.13-0.57,0.4c0,0.13,0.05,0.23,0.15,0.31C79.25,27.46,79.38,27.5,79.55,27.5z"/>
	<path class="st0" d="M81.56,25.26h0.45v2.57h-0.45V25.26z M81.78,24.76c-0.09,0-0.16-0.03-0.22-0.09
		c-0.06-0.06-0.08-0.13-0.08-0.21c0-0.08,0.03-0.16,0.08-0.21c0.06-0.06,0.13-0.09,0.22-0.09s0.16,0.03,0.22,0.09
		c0.06,0.06,0.09,0.12,0.09,0.21c0,0.09-0.03,0.16-0.09,0.22C81.94,24.73,81.87,24.76,81.78,24.76z"/>
	<path class="st0" d="M84.2,25.23c0.32,0,0.57,0.1,0.75,0.29c0.19,0.19,0.28,0.46,0.28,0.83v1.48h-0.45V26.4
		c0-0.25-0.06-0.44-0.17-0.56c-0.12-0.13-0.28-0.19-0.5-0.19c-0.24,0-0.44,0.07-0.58,0.22c-0.14,0.15-0.21,0.36-0.21,0.63v1.33
		h-0.45v-2.57h0.43v0.39c0.09-0.13,0.21-0.23,0.37-0.31C83.82,25.27,84,25.23,84.2,25.23z"/>
	<path class="st0" d="M88.67,24.43c0.43,0,0.76,0.11,1,0.32c0.24,0.21,0.37,0.5,0.37,0.87c0,0.37-0.12,0.66-0.37,0.87
		c-0.24,0.21-0.58,0.32-1,0.32h-0.81v1.03h-0.47v-3.4H88.67z M88.66,26.38c0.3,0,0.52-0.06,0.68-0.19c0.16-0.13,0.23-0.32,0.23-0.57
		c0-0.25-0.08-0.43-0.23-0.56c-0.16-0.13-0.38-0.2-0.68-0.2h-0.8v1.52H88.66z"/>
	<path class="st0" d="M90.71,24.23h0.45v3.6h-0.45V24.23z"/>
	<path class="st0" d="M92.93,25.23c0.34,0,0.61,0.09,0.79,0.26c0.18,0.17,0.28,0.44,0.28,0.78v1.55h-0.43v-0.34
		c-0.08,0.12-0.18,0.21-0.32,0.28c-0.14,0.06-0.3,0.09-0.49,0.09c-0.28,0-0.5-0.07-0.67-0.21c-0.17-0.14-0.25-0.32-0.25-0.55
		c0-0.23,0.08-0.41,0.24-0.54c0.16-0.14,0.41-0.21,0.76-0.21h0.71v-0.09c0-0.2-0.06-0.35-0.17-0.46c-0.11-0.11-0.28-0.16-0.5-0.16
		c-0.15,0-0.29,0.03-0.43,0.08c-0.14,0.05-0.26,0.11-0.36,0.2l-0.19-0.35c0.13-0.11,0.28-0.19,0.46-0.24
		C92.54,25.26,92.73,25.23,92.93,25.23z M92.82,27.5c0.17,0,0.32-0.04,0.45-0.12c0.13-0.08,0.22-0.19,0.27-0.34v-0.36h-0.69
		c-0.38,0-0.57,0.13-0.57,0.4c0,0.13,0.05,0.23,0.15,0.31C92.52,27.46,92.65,27.5,92.82,27.5z"/>
	<path class="st0" d="M96.23,27.68c-0.07,0.06-0.15,0.1-0.24,0.14c-0.1,0.03-0.2,0.04-0.3,0.04c-0.25,0-0.44-0.07-0.58-0.21
		c-0.14-0.14-0.21-0.34-0.21-0.6v-1.41h-0.42v-0.38h0.42v-0.56h0.45v0.56h0.71v0.38h-0.71v1.39c0,0.14,0.03,0.25,0.1,0.32
		c0.07,0.07,0.17,0.11,0.29,0.11c0.14,0,0.26-0.04,0.35-0.12L96.23,27.68z"/>
	<path class="st0" d="M97.68,24.58c-0.27,0-0.4,0.15-0.4,0.45v0.22H98v0.38h-0.71v2.19h-0.45v-2.19h-0.42v-0.38h0.42v-0.23
		c0-0.26,0.07-0.46,0.22-0.61c0.14-0.15,0.35-0.22,0.61-0.22c0.1,0,0.19,0.01,0.28,0.04c0.09,0.03,0.16,0.06,0.23,0.11l-0.14,0.35
		C97.93,24.62,97.81,24.58,97.68,24.58z"/>
	<path class="st0" d="M99.45,27.86c-0.25,0-0.47-0.06-0.67-0.17c-0.2-0.11-0.35-0.27-0.46-0.47c-0.11-0.2-0.16-0.43-0.16-0.68
		c0-0.25,0.05-0.48,0.16-0.67c0.11-0.2,0.27-0.36,0.46-0.47c0.2-0.11,0.42-0.17,0.67-0.17s0.47,0.06,0.66,0.17
		c0.2,0.11,0.35,0.27,0.46,0.47c0.11,0.2,0.17,0.42,0.17,0.67c0,0.25-0.06,0.48-0.17,0.68c-0.11,0.2-0.26,0.35-0.46,0.47
		C99.92,27.8,99.7,27.86,99.45,27.86z M99.45,27.45c0.16,0,0.3-0.04,0.43-0.11c0.13-0.08,0.23-0.18,0.3-0.32
		c0.07-0.14,0.11-0.3,0.11-0.48c0-0.18-0.04-0.34-0.11-0.47c-0.07-0.14-0.17-0.25-0.3-0.32c-0.13-0.07-0.27-0.11-0.43-0.11
		s-0.3,0.04-0.43,0.11c-0.13,0.07-0.23,0.18-0.3,0.32c-0.07,0.14-0.11,0.29-0.11,0.47c0,0.18,0.04,0.34,0.11,0.48
		c0.08,0.14,0.18,0.24,0.3,0.32C99.15,27.42,99.3,27.45,99.45,27.45z"/>
	<path class="st0" d="M101.8,25.69c0.08-0.15,0.19-0.26,0.35-0.34c0.15-0.08,0.34-0.12,0.56-0.12v0.45c-0.03,0-0.06,0-0.1,0
		c-0.24,0-0.44,0.08-0.58,0.23c-0.14,0.15-0.21,0.36-0.21,0.64v1.28h-0.45v-2.57h0.43V25.69z"/>
	<path class="st0" d="M106.37,25.23c0.31,0,0.56,0.09,0.74,0.28c0.18,0.19,0.28,0.47,0.28,0.84v1.48h-0.45V26.4
		c0-0.25-0.06-0.44-0.17-0.56c-0.11-0.13-0.27-0.19-0.47-0.19c-0.23,0-0.41,0.07-0.54,0.22c-0.13,0.15-0.2,0.36-0.2,0.63v1.33h-0.45
		V26.4c0-0.25-0.06-0.44-0.17-0.56c-0.11-0.13-0.27-0.19-0.47-0.19c-0.23,0-0.41,0.07-0.54,0.22c-0.13,0.15-0.2,0.36-0.2,0.63v1.33
		h-0.45v-2.57h0.43v0.38c0.09-0.13,0.21-0.23,0.36-0.3c0.15-0.07,0.31-0.11,0.5-0.11c0.19,0,0.37,0.04,0.52,0.12
		c0.15,0.08,0.27,0.2,0.35,0.35c0.09-0.15,0.22-0.27,0.39-0.35C105.98,25.28,106.16,25.23,106.37,25.23z"/>
</g>
<g>
	<g>
		<polygon class="st2" points="129.65,-34.58 118.28,-28.18 118.28,-15.1 119.99,-14.12 131.38,-20.54 131.38,-24.56 129.61,-25.52 
			127.92,-24.56 127.92,-22.54 120.6,-18.49 120.6,-19 121.69,-19.61 121.69,-26.19 128.88,-30.26 128.88,-29.74 127.92,-29.2 
			127.92,-28.41 129.68,-27.4 131.38,-28.36 131.38,-33.6 131.38,-33.6 		"/>
		<polygon class="st3" points="122.8,-31.62 126.26,-33.57 126.26,-36.56 124.53,-37.54 113.16,-31.15 113.16,-18.07 114.87,-17.09 
			116.57,-18.05 116.57,-29.16 122.8,-32.68 		"/>
		<polygon class="st4" points="117.7,-34.6 121.16,-36.54 121.16,-39.53 121.16,-39.53 119.43,-40.51 108.06,-34.11 108.06,-21.03 
			109.77,-20.06 111.47,-21.02 111.47,-32.12 117.7,-35.64 		"/>
	</g>
	<g>
		<path class="st0" d="M140.67-24.5c0.52,0,0.98-0.13,1.36-0.39c0.38-0.26,0.66-0.64,0.82-1.14l1.71,0.27
			c-0.23,0.89-0.69,1.59-1.4,2.1c-0.7,0.51-1.53,0.76-2.49,0.76c-0.58,0-1.11-0.1-1.61-0.29c-0.5-0.19-0.93-0.46-1.3-0.82
			c-0.37-0.35-0.66-0.79-0.86-1.32c-0.21-0.53-0.31-1.11-0.31-1.74s0.1-1.22,0.31-1.74c0.21-0.52,0.5-0.96,0.86-1.32
			c0.37-0.35,0.8-0.63,1.3-0.82c0.5-0.19,1.04-0.29,1.61-0.29c0.95,0,1.78,0.25,2.49,0.76c0.7,0.51,1.17,1.21,1.4,2.11l-1.71,0.26
			c-0.16-0.5-0.43-0.88-0.82-1.14c-0.38-0.26-0.84-0.39-1.36-0.39c-0.7,0-1.26,0.23-1.7,0.68c-0.44,0.45-0.66,1.08-0.66,1.89
			c0,0.81,0.22,1.44,0.66,1.9C139.41-24.72,139.97-24.5,140.67-24.5z"/>
		<path class="st0" d="M152.99-23h-1.81l-1.57-2.68h-1.88V-23H146v-8.15h4.15c0.7,0,1.29,0.26,1.78,0.78
			c0.49,0.52,0.73,1.17,0.73,1.96c0,0.57-0.13,1.08-0.39,1.51c-0.26,0.44-0.61,0.76-1.04,0.97L152.99-23z M147.74-29.63v2.51h2.07
			c0.32,0,0.58-0.11,0.8-0.34c0.21-0.23,0.32-0.53,0.32-0.92c0-0.38-0.11-0.69-0.32-0.91c-0.21-0.23-0.48-0.34-0.8-0.34H147.74z"/>
		<path class="st0" d="M158.73-31.15h1.77l-2.72,5.03V-23h-1.73v-3.12l-2.76-5.03h1.77l1.84,3.38L158.73-31.15z"/>
		<path class="st0" d="M165.81-31.15c0.7,0,1.29,0.26,1.78,0.78c0.49,0.52,0.73,1.17,0.73,1.96c0,0.8-0.24,1.45-0.73,1.96
			c-0.49,0.51-1.08,0.77-1.78,0.77h-2.41V-23h-1.74v-8.15H165.81z M165.47-27.12c0.32,0,0.58-0.11,0.8-0.34
			c0.21-0.23,0.32-0.53,0.32-0.92c0-0.38-0.11-0.69-0.32-0.91c-0.21-0.23-0.48-0.34-0.8-0.34h-2.07v2.51H165.47z"/>
		<path class="st0" d="M176.06-31.15v1.52h-2.41V-23h-1.73v-6.63h-2.42v-1.52H176.06z"/>
		<path class="st0" d="M182.68-23.19c-0.5,0.19-1.03,0.29-1.61,0.29c-0.57,0-1.11-0.1-1.61-0.29c-0.5-0.19-0.93-0.46-1.3-0.82
			c-0.37-0.35-0.66-0.79-0.86-1.32c-0.21-0.53-0.31-1.11-0.31-1.74s0.1-1.22,0.31-1.74c0.21-0.52,0.5-0.96,0.86-1.32
			c0.37-0.35,0.8-0.63,1.3-0.82c0.5-0.19,1.03-0.29,1.61-0.29c0.57,0,1.11,0.1,1.61,0.29c0.5,0.19,0.93,0.46,1.3,0.82
			c0.37,0.35,0.66,0.79,0.87,1.32c0.21,0.52,0.32,1.11,0.32,1.74s-0.11,1.22-0.32,1.74c-0.21,0.53-0.5,0.97-0.87,1.32
			C183.61-23.66,183.18-23.39,182.68-23.19z M179.38-25.18c0.44,0.45,1,0.68,1.7,0.68c0.7,0,1.27-0.23,1.7-0.68
			c0.43-0.45,0.65-1.08,0.65-1.9c0-0.81-0.22-1.44-0.65-1.89c-0.43-0.45-1-0.68-1.7-0.68c-0.7,0-1.27,0.23-1.7,0.68
			c-0.44,0.45-0.65,1.08-0.65,1.89C178.72-26.26,178.94-25.63,179.38-25.18z"/>
		<path class="st0" d="M192.12-24.5c0.52,0,0.98-0.13,1.36-0.39c0.38-0.26,0.66-0.64,0.82-1.14l1.71,0.27
			c-0.23,0.89-0.69,1.59-1.4,2.1c-0.7,0.51-1.53,0.76-2.49,0.76c-0.58,0-1.11-0.1-1.61-0.29c-0.5-0.19-0.93-0.46-1.3-0.82
			c-0.37-0.35-0.66-0.79-0.86-1.32c-0.21-0.53-0.31-1.11-0.31-1.74s0.1-1.22,0.31-1.74c0.21-0.52,0.5-0.96,0.86-1.32
			c0.37-0.35,0.8-0.63,1.3-0.82c0.5-0.19,1.04-0.29,1.61-0.29c0.95,0,1.78,0.25,2.49,0.76c0.7,0.51,1.17,1.21,1.4,2.11l-1.71,0.26
			c-0.16-0.5-0.43-0.88-0.82-1.14c-0.38-0.26-0.84-0.39-1.36-0.39c-0.7,0-1.26,0.23-1.7,0.68c-0.44,0.45-0.66,1.08-0.66,1.89
			c0,0.81,0.22,1.44,0.66,1.9C190.85-24.72,191.42-24.5,192.12-24.5z"/>
		<path class="st0" d="M199.18-31.15V-23h-1.74v-8.15H199.18z"/>
		<path class="st0" d="M207.07-31.15v1.52h-2.41V-23h-1.73v-6.63h-2.42v-1.52H207.07z"/>
		<path class="st0" d="M213.68-31.15h1.77l-2.72,5.03V-23H211v-3.12l-2.76-5.03h1.77l1.84,3.38L213.68-31.15z"/>
	</g>
	<g>
		<path class="st0" d="M154.55-16.66c0.22,0,0.42-0.06,0.58-0.17c0.16-0.11,0.28-0.28,0.35-0.49l0.73,0.11
			c-0.1,0.38-0.3,0.68-0.6,0.9c-0.3,0.22-0.66,0.33-1.07,0.33c-0.25,0-0.48-0.04-0.69-0.12c-0.21-0.08-0.4-0.2-0.56-0.35
			c-0.16-0.15-0.28-0.34-0.37-0.56c-0.09-0.23-0.13-0.47-0.13-0.75s0.04-0.52,0.13-0.75c0.09-0.22,0.21-0.41,0.37-0.56
			c0.16-0.15,0.34-0.27,0.56-0.35s0.44-0.12,0.69-0.12c0.41,0,0.76,0.11,1.07,0.33c0.3,0.22,0.5,0.52,0.6,0.9l-0.73,0.11
			c-0.07-0.21-0.18-0.38-0.35-0.49c-0.16-0.11-0.36-0.17-0.58-0.17c-0.3,0-0.54,0.1-0.73,0.29c-0.19,0.19-0.28,0.46-0.28,0.81
			s0.09,0.62,0.28,0.81C154.01-16.75,154.25-16.66,154.55-16.66z"/>
		<path class="st0" d="M162.68-16.1c-0.21,0.08-0.44,0.12-0.69,0.12s-0.48-0.04-0.69-0.12c-0.21-0.08-0.4-0.2-0.56-0.35
			c-0.16-0.15-0.28-0.34-0.37-0.56c-0.09-0.23-0.13-0.47-0.13-0.75s0.04-0.52,0.13-0.75c0.09-0.22,0.21-0.41,0.37-0.56
			c0.16-0.15,0.34-0.27,0.56-0.35s0.44-0.12,0.69-0.12s0.48,0.04,0.69,0.12s0.4,0.2,0.56,0.35c0.16,0.15,0.28,0.34,0.37,0.56
			c0.09,0.22,0.14,0.47,0.14,0.75s-0.05,0.52-0.14,0.75c-0.09,0.23-0.21,0.41-0.37,0.56C163.08-16.3,162.89-16.18,162.68-16.1z
			 M161.26-16.95c0.19,0.19,0.43,0.29,0.73,0.29s0.54-0.1,0.73-0.29c0.19-0.19,0.28-0.46,0.28-0.81s-0.09-0.62-0.28-0.81
			c-0.19-0.19-0.43-0.29-0.73-0.29s-0.54,0.1-0.73,0.29c-0.19,0.19-0.28,0.46-0.28,0.81S161.08-17.14,161.26-16.95z"/>
		<path class="st0" d="M170.34-19.51h0.74v3.49h-0.82l-1.57-2.32v2.32h-0.75v-3.49h0.82l1.58,2.32V-19.51z"/>
		<path class="st0" d="M177.8-19.51h0.74v3.49h-0.82l-1.57-2.32v2.32h-0.75v-3.49h0.82l1.58,2.32V-19.51z"/>
		<path class="st0" d="M185.27-18.86h-1.66v0.79h1.36v0.61h-1.36v0.79h1.66v0.65h-2.4v-3.49h2.4V-18.86z"/>
		<path class="st0" d="M192.38-19.51l-1.12,1.75l1.12,1.75h-0.8l-0.72-1.12l-0.72,1.12h-0.81l1.13-1.75l-1.13-1.75h0.81l0.72,1.12
			l0.72-1.12H192.38z"/>
		<path class="st0" d="M199.24-19.51v0.65h-1.03v2.84h-0.74v-2.84h-1.04v-0.65H199.24z"/>
	</g>
</g>
<g>
	<g>
		<path id="Reg_3_" class="st0" d="M106.59-23.79v-0.28h0.19c0.1,0,0.24,0.01,0.24,0.13c0,0.13-0.07,0.15-0.19,0.15H106.59
			 M106.59-23.59h0.13l0.29,0.5h0.32l-0.32-0.52c0.17-0.01,0.3-0.09,0.3-0.31c0-0.27-0.19-0.36-0.52-0.36h-0.47v1.18h0.27V-23.59
			 M107.96-23.68c0-0.69-0.56-1.1-1.18-1.1c-0.62,0-1.18,0.4-1.18,1.1s0.56,1.1,1.18,1.1C107.41-22.58,107.96-22.99,107.96-23.68
			 M107.62-23.68c0,0.51-0.38,0.84-0.84,0.84v0c-0.47,0-0.84-0.34-0.84-0.84c0-0.5,0.38-0.84,0.84-0.84
			C107.24-24.52,107.62-24.18,107.62-23.68z"/>
		<path id="NVIDIA_2_" class="st0" d="M64.78-35.42l0,12.45h3.63v-12.45H64.78z M36.22-35.43v12.47h3.66v-9.47l2.84,0
			c0.94,0,1.61,0.23,2.06,0.69c0.57,0.59,0.81,1.55,0.81,3.3v5.47h3.55v-6.89c0-4.92-3.24-5.58-6.4-5.58H36.22z M70.62-35.42v12.45
			h5.89c3.14,0,4.16-0.51,5.27-1.64c0.78-0.8,1.29-2.54,1.29-4.45c0-1.75-0.43-3.31-1.18-4.28c-1.35-1.74-3.28-2.08-6.18-2.08H70.62
			z M74.22-32.71h1.56c2.26,0,3.73,0.98,3.73,3.54c0,2.56-1.46,3.54-3.73,3.54h-1.56V-32.71z M59.54-35.42l-3.03,9.87l-2.9-9.87
			l-3.92,0l4.15,12.45h5.23l4.18-12.45H59.54z M84.76-22.97h3.63v-12.45l-3.63,0L84.76-22.97z M94.94-35.41l-5.07,12.44h3.58
			l0.8-2.2h6l0.76,2.2h3.89l-5.11-12.44L94.94-35.41z M97.29-33.14l2.2,5.83h-4.47L97.29-33.14z"/>
	</g>
	<path id="Eye_Mark_3_" class="st5" d="M12.15-33.19v-1.8C12.33-35,12.51-35,12.7-35.01c5.07-0.15,8.4,4.22,8.4,4.22
		s-3.6,4.84-7.45,4.84c-0.56,0-1.05-0.09-1.5-0.23v-5.45c1.98,0.23,2.37,1.08,3.56,2.99l2.64-2.16c0,0-1.93-2.45-5.18-2.45
		C12.82-33.25,12.48-33.22,12.15-33.19 M12.15-39.12v2.68c0.18-0.01,0.36-0.03,0.55-0.03c7.06-0.23,11.65,5.6,11.65,5.6
		s-5.28,6.22-10.78,6.22c-0.5,0-0.98-0.05-1.42-0.12v1.66c0.38,0.05,0.77,0.07,1.18,0.07c5.12,0,8.82-2.53,12.41-5.53
		c0.59,0.46,3.03,1.58,3.53,2.07c-3.41,2.76-11.35,4.99-15.86,4.99c-0.43,0-0.85-0.03-1.26-0.06v2.33h19.46v-19.89H12.15z
		 M12.15-26.19v1.42c-4.73-0.82-6.05-5.58-6.05-5.58s2.27-2.44,6.05-2.83v1.55c0,0,0,0-0.01,0c-1.98-0.23-3.53,1.56-3.53,1.56
		S9.48-27.05,12.15-26.19 M3.74-30.56c0,0,2.81-4.01,8.41-4.42v-1.45c-6.21,0.48-11.58,5.57-11.58,5.57s3.04,8.52,11.58,9.3v-1.55
		C5.89-23.87,3.74-30.56,3.74-30.56z"/>
</g>
</svg>
